<svg xmlns="http://www.w3.org/2000/svg" width="20.002" height="20" viewBox="0 0 20.002 20" fill="#FFFFFF"><path d="M2.568 0h14.866A2.574 2.574 0 0 1 20 2.567v14.866A2.573 2.573 0 0 1 17.435 20H2.568A2.573 2.573 0 0 1 0 17.433V2.567A2.575 2.575 0 0 1 2.568 0zM14.57 2.22c-.495 0-.9.408-.9.903v2.154c0 .496.406.9.9.9h2.262c.495 0 .9-.404.9-.9V3.123a.904.904 0 0 0-.9-.902h-2.26zm3.17 6.238h-1.76c.168.545.258 1.12.258 1.718 0 3.326-2.784 6.023-6.218 6.023-3.433 0-6.218-2.698-6.218-6.024 0-.598.09-1.172.257-1.718H2.223v8.45c0 .438.357.793.794.793h13.928a.794.794 0 0 0 .794-.792v-8.45zm-7.72-2.393c-2.218 0-4.017 1.742-4.017 3.893 0 2.148 1.8 3.892 4.017 3.892 2.218 0 4.017-1.744 4.017-3.892 0-2.15-1.8-3.893-4.017-3.893z"></path></svg>
