<svg xmlns="http://www.w3.org/2000/svg" width="15.559" height="19.997" viewBox="0 0 15.559 19.997" fill="#FFFFFF"><path d="M15.466 5.557C14.923 1.607 10.98-.406 6.78.064 3.456.436.148 3.122.008 6.967-.078 9.31.587 11.07 2.82 11.56c.964-1.706-.312-2.078-.512-3.318-.818-5.065 5.84-8.52 9.325-4.985 2.417 2.453.824 9.985-3.063 9.198-3.73-.745 1.825-6.74-1.147-7.917C5.005 3.58 3.718 7.46 4.863 9.39c-.67 3.32-2.116 6.445-1.53 10.607 1.9-1.38 2.54-4.022 3.064-6.774.958.58 1.47 1.184 2.684 1.28 4.494.343 7.003-4.484 6.386-8.946zm0 0"></path></svg>
