<svg xmlns="http://www.w3.org/2000/svg" xmlns:xlink="http://www.w3.org/1999/xlink" version="1.1" id="Layer_1" x="0px" y="0px" width="50px" height="50px" viewBox="0 0 50 50" enable-background="new 0 0 50 50" xml:space="preserve">
  <g>
    <path fill="#FFFFFF" d="M7.998,12.817h22.36c1.574,0,2.863,1.305,2.863,2.879v2.638l5.842,0.014   c0.289-0.002,0.561,0.135,0.732,0.367l4.824,6.687c0.082,0.092,0.146,0.197,0.185,0.312c0.005,0.018,0.009,0.037,0.014,0.055   c0.041,0.123,0.056,0.254,0.042,0.383v5.728c0,1.29-1.061,2.356-2.355,2.356h-0.366c-0.478,1.693-2.037,2.947-3.88,2.947   c-1.844,0-3.414-1.254-3.895-2.947H18.579c-0.478,1.695-2.05,2.947-3.893,2.947c-1.846,0-3.402-1.254-3.881-2.947H7.998   c-1.573,0-2.863-1.305-2.863-2.879v-15.66C5.135,14.122,6.425,12.816,7.998,12.817L7.998,12.817z M18.861,20.097   c0.023,0.499,0.447,0.885,0.945,0.861h8.858c0.002,0,0.003,0,0.005,0c0.498-0.002,0.901-0.407,0.899-0.905   c-0.001-0.499-0.405-0.902-0.904-0.901h-8.858c-0.028-0.002-0.056-0.002-0.085,0C19.224,19.174,18.839,19.599,18.861,20.097z    M33.913,21.733v4.4c0,0.499,0.404,0.903,0.903,0.903h6.207c0.19,0.002,0.377-0.056,0.532-0.166   c0.406-0.289,0.504-0.853,0.215-1.259l-3.132-4.401c-0.167-0.238-0.441-0.379-0.732-0.381h-3.09c-0.028-0.001-0.058-0.001-0.085,0   C34.267,20.874,33.911,21.266,33.913,21.733z M15.673,23.201c-0.498,0.022-0.883,0.445-0.859,0.944   c0.022,0.498,0.446,0.885,0.944,0.86h12.907c0.002,0,0.003,0,0.005,0c0.498-0.001,0.901-0.406,0.899-0.905   c-0.001-0.498-0.405-0.9-0.904-0.899H15.758C15.73,23.2,15.702,23.2,15.673,23.201L15.673,23.201z M14.687,30.903   c-1.244,0-2.23,0.979-2.23,2.229v0.016c0.005,1.237,0.986,2.229,2.23,2.229c1.228,0,2.216-0.968,2.242-2.188v-0.057   C16.929,31.883,15.928,30.903,14.687,30.903L14.687,30.903z M36.017,33.131c0,1.243,1.001,2.243,2.242,2.243   c1.242,0,2.229-1,2.229-2.243c0-1.248-0.985-2.229-2.229-2.229C37.017,30.901,36.017,31.883,36.017,33.131z"></path>
  </g>
</svg>
