<svg xmlns="http://www.w3.org/2000/svg" width="24.799" height="20" viewBox="0 0 24.799 20" fill="#FFFFFF"><path d="M21.19 0c2.4.063 3.597 1.423 3.608 4.09 0 .174-.006.36-.012.546-.104 2.26-1.79 5.332-5.054 9.23-3.364 4.08-6.216 6.124-8.563 6.134-1.46 0-2.674-1.247-3.645-3.745l-1.02-3.43L5.5 9.406c-.742-2.48-1.538-3.72-2.387-3.72-.186 0-.83.362-1.935 1.082L0 5.373l1.83-1.516 1.795-1.5C5.235 1.07 6.46.368 7.295.268 7.41.257 7.523.25 7.64.25c1.72 0 2.8 1.237 3.217 3.717.238 1.412.436 2.563.593 3.446.15.882.28 1.497.384 1.854.57 2.34 1.185 3.52 1.84 3.532.513 0 1.29-.77 2.342-2.296 1.034-1.57 1.586-2.73 1.66-3.486a3.77 3.77 0 0 0 .03-.43c0-1.03-.563-1.54-1.69-1.54-.57 0-1.173.123-1.823.36C15.353 1.813 17.595.012 20.91 0h.28zm0 0"></path></svg>
