<svg xmlns="http://www.w3.org/2000/svg" width="76" height="17" viewBox="0 0 76 17" fill="#FFFFFF"><g><path d="M0 5.925c.053.004.103.01.156.01 1.507 0 3.017 0 4.523-.004.098 0 .173.027.245.098C6.483 7.466 8.045 8.9 9.607 10.34c.026.02.053.044.092.077.182-.172.364-.34.542-.513 1.38-1.3 2.76-2.604 4.14-3.902a.28.28 0 0 1 .168-.063c.93-.005 1.86-.005 2.792-.003.053 0 .12.024.154.062.66.753 1.312 1.513 1.967 2.27.013.018.025.037.057.08h-.158c-.793 0-1.588 0-2.38-.006-.11 0-.19.03-.268.106-1.417 1.34-2.836 2.674-4.255 4.01-.9.845-1.796 1.69-2.694 2.536l-.07.06c-.288-.268-.57-.534-.852-.8l-5.32-5.003C2.37 8.163 1.215 7.076.055 5.988.04 5.975.02 5.962 0 5.946v-.02zM65.79 0c.126.01.254.022.38.028.753.04 1.506.07 2.258.124 1.07.073 2.13.226 3.18.46.97.22 1.92.507 2.797.996.422.238.804.525 1.117.902.652.778.633 1.744-.025 2.516a5.267 5.267 0 0 1-1.5 1.195c-.488.268-.99.518-1.504.727-.322.13-.68.173-1.02.25a5.786 5.786 0 0 1-.508.09c.21-.09.427-.176.636-.27.747-.343 1.468-.73 2.073-1.295.19-.18.363-.383.508-.595.425-.623.403-1.3-.034-1.912-.336-.466-.785-.787-1.283-1.054-.772-.412-1.604-.66-2.45-.857A18.608 18.608 0 0 0 67.845.89c-.79-.068-1.58-.135-2.372-.168-.805-.033-1.61-.05-2.418-.035-.893.013-1.785.062-2.68.106-.578.028-1.157.072-1.734.125-.587.053-1.17.12-1.755.186a79.665 79.665 0 0 0-3.865.522 88.84 88.84 0 0 0-2.105.355c-1.006.182-2.012.375-3.018.566-.293.056-.586.122-.885.168.246-.106.5-.196.74-.314.63-.314 1.318-.41 1.994-.553.938-.192 1.88-.374 2.826-.544.846-.155 1.693-.29 2.543-.424A88.816 88.816 0 0 1 57.228.57a87.103 87.103 0 0 1 3.604-.39A43.986 43.986 0 0 1 62.43.08c.59-.026 1.183-.04 1.775-.06.03 0 .062-.013.092-.02h1.494zM36.23 5.942h15.877v2.142H40.154V9.24H51.12v1.855H40.047c.012.065.018.116.03.168a1.512 1.512 0 0 0 1.343 1.164c.16.016.32.02.482.02 3.34.003 6.683.003 10.022.003h.18v2.148h-.157c-3.81 0-7.623-.002-11.432.002-.51.002-1.012-.016-1.51-.123-.72-.158-1.382-.436-1.914-.97-.504-.502-.757-1.127-.832-1.825a6.88 6.88 0 0 1-.028-.688c-.002-1.632 0-3.263 0-4.896v-.156z"></path><path d="M49.73 16.97c3.318-2.233 6.642-4.465 9.978-6.712-1.604-1.438-3.198-2.87-4.81-4.312.048-.007.075-.01.105-.01 1.48-.003 2.96-.003 4.44 0 .06 0 .132.032.178.07.877.782 1.752 1.564 2.624 2.346.042.04.086.076.132.115.226-.15.442-.297.664-.447 1.966-1.317 3.933-2.64 5.897-3.958a.347.347 0 0 1 .176-.06C70.633 4 72.153 4 73.675 4h.068c.004.01.01.016.01.024-3.103 2.085-6.21 4.173-9.333 6.276 1.594 1.43 3.178 2.853 4.777 4.29a.722.722 0 0 1-.115.012c-1.477 0-2.953 0-4.43-.004a.337.337 0 0 1-.195-.084c-.87-.777-1.736-1.557-2.604-2.334-.08-.074-.13-.074-.222-.017-2.357 1.59-4.72 3.18-7.085 4.767a.407.407 0 0 1-.21.067c-1.5.005-3 .003-4.497.003-.034 0-.07-.003-.104-.005-.004-.01-.004-.016-.005-.026zM25.177 14.592v-.176V8.52c0-.173 0-.173-.17-.173h-4.055a.266.266 0 0 1-.224-.102c-.615-.72-1.235-1.432-1.853-2.146-.042-.048-.08-.1-.134-.157h16.48v.147c0 .688.002 1.377 0 2.067 0 .21.024.19-.182.19h-5.91v6.244c-1.32.002-2.626.002-3.95.002z"></path><path d="M61.027 5.682c0-.887.697-1.59 1.576-1.59a1.584 1.584 0 0 1 1.59 1.592 1.59 1.59 0 0 1-1.6 1.587 1.58 1.58 0 0 1-1.566-1.588z"></path></g></svg>
