<svg xmlns="http://www.w3.org/2000/svg" xmlns:xlink="http://www.w3.org/1999/xlink" version="1.1" id="Layer_1" x="0px" y="0px" width="100px" height="49px" viewBox="0 0 100 49" enable-background="new 0 0 100 49" xml:space="preserve">
                            <g>
                                <path fill="#FFFFFF" d="M26.992,7.482c0,0-13.095-7.248-24.156-3.765c0,0-0.68-0.019-1.329,0.869   C0.854,5.473,0.271,6.082,0.59,6.776c0.323,0.687,2.016,1.017,3.501,0.605c0,0,0.698-0.431-0.148-0.743   C3.1,6.331,2.651,6.264,2.651,6.264S2.197,6.141,2.654,5.922c0.468-0.211,5.502-1.652,14.28,0.873   c8.785,2.525,20.543,10.018,19.987,17.44c-0.558,7.421-12.193,7.421-12.193,7.421s-2.395,0.041-5.584-0.652   c0-2.451,0-6.595,0.115-9.135c4.529,0.178,9.1,1.084,9.434,2.184c0,0,0.226,0.541-0.821,0.999c-0.935,0.412-1.667,0.688-0.88,1.103   c0,0,1.106,0.559,1.823,0.514c0.716-0.045,2.573-0.832,2.811-2.811c0.237-2.031-2.031-3.936-5.577-4.653   c-2.67-0.535-4.1-0.798-6.546-0.757c0.048-2.213-0.179-4.964-0.639-5.636c-0.605-0.873-1.248-2.023-1.797-0.791   c-0.494,1.114-0.928,3.472-1.132,6.668c-3.761,0.487-7.942,1.961-9.205,3.476c-1.415,1.693-0.082,3.111,0.019,3.264   c0.093,0.163,2.71,4.17,8.555,7.008c0.063,1.068,0.227,2.236,0.627,2.881c0.873,1.389,2.547,0.471,2.778,0.248   c0.174-0.155,0.319-0.596,0.386-1.652c2.618,0.742,7.354,1.611,12.516,0.22c7.778-2.104,8.996-6.866,9.304-9.699   C41.224,21.609,39.304,14.128,26.992,7.482 M7.503,24.627c0,0-0.821-0.932,0.445-1.466c1.147-0.475,3.576-1.11,7.853-1.284   c-0.074,2.19-0.111,3.688-0.49,7.998C12.59,28.842,9.746,27.209,7.503,24.627"></path>
                                <path fill="#FFFFFF" d="M46.957,16.753c3.148-0.961,6.216-3.906,6.312-6.349c0.101-2.436-2.621-2.491-2.621-2.491   c-0.022,0-0.037,0-0.061,0c-0.431-1.538-3.275-1.4-3.275-1.4c-5.77,0.315-7.789,4.255-8.075,5.298   c-0.253,0.921-0.182,2.298,0.913,3.304c-0.356,0.858-0.111,1.263-0.03,1.493c0.104,0.286,0.59,1.177,1.155,1.14   c0.405-0.03,0.721-0.293,1.214-1.166C43.618,17.102,44.989,17.347,46.957,16.753 M51,11.525c-1.697,3.241-5.298,3.275-7.322,2.863   c1.347-1.938,4.247-4.292,6.062-4.541C51.82,9.564,51,11.525,51,11.525 M41.751,11.206c0.827-1.229,1.986-1.756,3.416-1.849   c-1.834,1.147-3.123,2.729-3.828,3.753C41.097,12.702,41.127,12.138,41.751,11.206"></path>
                                <path fill="#FFFFFF" d="M45.397,21.557c-0.06-0.999-0.383-1.489-0.676-1.923c-0.301-0.438-0.713-1.01-1.441-0.408   c-0.723,0.602-0.897,4.541-1.076,7.689c-0.171,3.146-0.063,5.135,0.319,5.687c0.379,0.549,1.849,0.815,2.518,0.324   c0.665-0.492,0.475-5.148,0.475-5.148S45.457,22.552,45.397,21.557"></path>
                                <path fill="#FFFFFF" d="M61.334,20.117c-0.984-1.162-6.583-1.128-6.583-1.128c-2.071,0.111-6.781,0.816-7.52,2.933   c-0.713,2.064-0.119,2.808-0.119,2.808c0.557,1.07,4.574,1.127,5.678,1.213c1.103,0.09,4.028,0.522,5.021,1.14   c1.031,0.646,0.301,1.371,0.301,1.371c-1.728,1.825-7.385,1.979-8.8,1.075c-0.576-0.359-0.687-0.783-0.104-1.389   c0.602-0.632,2.48,0.412,2.258,0.301c-0.215-0.117,0.93,0.67,2.51,0.746c1.59,0.074,2.737-0.494,2.812-1.027   c0.074-0.538-1.357-1.114-1.357-1.114c-4.725-1.474-6.66-0.366-6.66-0.366c-2.628,1.569-0.761,3.783-0.761,3.783   c4.091,4.596,10.701,1.87,11.458,1.239c0.754-0.632,1.084-1.308,1.17-3.147c0.081-1.839-0.687-2.686-0.687-2.686   c-1.314-1.711-5.068-1.832-6.19-1.912c-1.047-0.075-3.223-0.409-3.758-0.539c-0.538-0.126-0.156-0.508-0.156-0.508   c0.453-0.688,10.104-1.043,10.104-1.043c0.979-0.126,1.144-0.709,1.34-1.121C61.452,20.384,61.334,20.117,61.334,20.117"></path>
                                <path fill="#FFFFFF" d="M69.645,17.436c0,0-0.593-0.305-0.776,0.319c-0.188,0.62,0.018,1.251,0.018,1.251   c1.411,5.287,1.664,8.362,1.664,8.362s0.056,0.899-0.104,0.981c-0.155,0.072-0.297-0.058-0.297-0.058   c-0.142-0.033-1.76-2.903-1.76-2.903l-0.293-0.536c-1.816-3.059-2.867-4.106-2.867-4.106c-0.271-0.252-0.932-0.939-1.812-0.03   c-0.876,0.913-1.585,3.898-1.927,6.729c-0.334,2.824-0.186,4.447,0.219,5.143c0.405,0.694,1.277,0.941,2.035,0.371   c0.758-0.568,0.75-4.303,0.921-6.2c0.163-1.901,0.326-1.565,0.326-1.565c0.171-0.026,0.999,1.76,0.999,1.76   s2.191,4.748,3.615,5.498c1.427,0.747,2.647-0.354,3.135-1.385c0.482-1.035,1.349-4.53,0.293-8.447   C71.984,18.698,69.645,17.436,69.645,17.436"></path>
                                <path fill="#FFFFFF" d="M84.331,31.35c0.196-0.705-0.438-1.567-1.052-1.709c-0.561-0.13-4.938,0.551-5.483,0.68   c-0.542,0.123-0.286-0.391-0.286-0.391l0.747-2.254c0,0,4.173-0.031,4.761-0.133c0.582-0.089,0.619-0.473,0.619-0.473   s0.078-0.652,0.067-1.276c-0.017-0.627-0.55-0.612-0.55-0.612c-1.615-0.189-3.803-0.056-3.803-0.056l0.575-1.772   c0,0,4.448-0.081,6.142-0.434c0.851-0.174,0.4-1.043,0.4-1.043c-0.998-2.139-2.213-2.027-2.213-2.027   c-3.477-0.242-8.584,0.575-9.13,0.813c-0.55,0.241-0.501,0.631,0.156,1.478c0.704,0.914,1.916,0.88,1.916,0.88l-1.114,2.165   c-0.869,0.049-1.17,0.309-1.17,0.309c-0.527,0.513,0.107,2.131,0.107,2.131s-1.611,3.361-0.539,5.198   c1.115,1.891,2.519,1.842,2.519,1.842C79.646,34.916,84.066,32.295,84.331,31.35"></path>
                                <path fill="#FFFFFF" d="M98.186,21.557c-2.838-2.086-7.649,4.126-9.776,7.214c-0.275-1.606,0.876-3.639,0.876-3.639   s1.818-2.956,2.09-3.543c0.271-0.591,0.424-1.894,0.143-2.016c-0.279-0.123-0.746,0.29-0.746,0.29   c-4.012,3.378-4.664,7.247-4.664,7.247c-0.438,2.096-0.049,3.58,0.554,4.602c-2.291,4.598-3.46,8.588-3.216,10.945   c0.186,1.846,1.463,3.167,2.254,3.502c0.783,0.334,0.925-0.643,0.925-0.643c0.799-4.871,2.005-8.121,3.427-11.365   c4.043,1.051,7.251-2.83,8.361-4.7C99.836,27.062,99.966,22.872,98.186,21.557 M95.32,29.34c-0.485,0.42-2.026,1.244-3.631,1.37   c1.615-2.907,3.545-5.038,4.627-6.167c1.276-1.359,1.414-0.07,1.414-0.07C97.945,26.886,96.107,28.657,95.32,29.34"></path>
                            </g>
                        </svg>
