<svg xmlns="http://www.w3.org/2000/svg" width="200" height="86" viewBox="0 0 200 86" fill="#FFFFFF"><path d="M85.843 19.746c-.897-.798-2.126-1.23-3.305-1.23-2.807 0-4.95 2.343-4.95 5.117 0 2.74 2.126 5.083 4.916 5.083a5.01 5.01 0 0 0 3.34-1.296v1.844c-.964.565-2.194.88-3.29.88-3.57 0-6.528-2.84-6.528-6.46 0-3.705 2.973-6.596 6.66-6.596 1.097 0 2.21.266 3.157.847v1.81zM99.947 23.616c0 3.72-2.94 6.528-6.56 6.528-3.622 0-6.563-2.807-6.563-6.528 0-3.588 2.974-6.528 6.562-6.528s6.56 2.94 6.56 6.528zm-1.562 0c0-2.757-2.06-5.066-5-5.066s-5 2.31-5 5.066c0 2.857 2.293 5.066 5 5.066 2.708 0 5-2.21 5-5.066zM101.31 16.756l9.402 9.85v-9.252h1.56v13.04l-9.4-9.85v9.334h-1.562V16.756zM114.35 16.756l9.402 9.85v-9.252h1.562v13.04l-9.402-9.85v9.334h-1.56V16.756zM127.54 17.354h6.728v1.428h-5.166v3.505h5.017v1.43H129.1v4.733h5.166v1.428h-6.727V17.354zM145.315 19.746c-.897-.798-2.126-1.23-3.306-1.23-2.808 0-4.95 2.343-4.95 5.117 0 2.74 2.125 5.083 4.916 5.083a5.01 5.01 0 0 0 3.34-1.296v1.844c-.965.565-2.194.88-3.29.88-3.57 0-6.528-2.84-6.528-6.46 0-3.705 2.973-6.596 6.66-6.596 1.097 0 2.21.266 3.157.847v1.81zM150.548 29.878h-1.56V18.782h-2.974v-1.428h7.507v1.428h-2.972v11.096zM156.263 29.878h-1.56V17.354h1.56v12.524zM158.456 16.756l9.402 9.85v-9.252h1.56v13.04l-9.4-9.85v9.334h-1.562V16.756zM183.058 23.566v.5c0 3.437-2.425 6.078-5.93 6.078S170.8 27.12 170.8 23.65c0-3.605 2.89-6.562 6.494-6.562 1.944 0 3.87.88 5.1 2.425l-1.097 1.047c-.897-1.23-2.408-2.043-3.936-2.043-2.806 0-5 2.276-5 5.083 0 2.624 2.16 5.116 4.868 5.116 1.943 0 4.036-1.678 4.103-3.72h-3.238v-1.43h4.966zM76.59 37.29h4.62c3.487 0 6.36 2.74 6.36 6.26 0 3.522-2.89 6.263-6.36 6.263h-4.62V37.29zm3.257 9.766h.73c1.944 0 3.605-1.063 3.605-3.505 0-2.242-1.478-3.504-3.57-3.504h-.765v7.01zM102.306 43.318c0 4.053-2.907 6.91-6.927 6.91s-6.927-2.857-6.927-6.91c0-3.787 3.322-6.445 6.926-6.445s6.926 2.658 6.926 6.445zm-10.465.017c0 2.16 1.596 3.738 3.54 3.738 1.943 0 3.537-1.578 3.537-3.738 0-1.728-1.594-3.306-3.538-3.306-1.944 0-3.54 1.577-3.54 3.305zM116.31 42.82c-.033 1.827-.166 3.39-1.28 4.95-1.228 1.71-3.072 2.458-5.165 2.458-3.937 0-6.678-2.674-6.678-6.61 0-4.07 2.758-6.745 6.794-6.745 2.576 0 4.57 1.163 5.65 3.505l-3.09 1.296c-.45-1.196-1.396-1.993-2.708-1.993-2.143 0-3.256 2.044-3.256 3.954 0 1.944 1.163 3.92 3.306 3.92 1.412 0 2.49-.73 2.624-2.176h-2.658V42.82h6.462zM124.683 40.51c-.598-.497-1.362-.83-2.16-.83-.597 0-1.394.35-1.394 1.047 0 .73.88 1.013 1.444 1.196l.83.25c1.745.514 3.09 1.394 3.09 3.42 0 1.246-.298 2.525-1.295 3.373-.98.83-2.294 1.18-3.556 1.18-1.578 0-3.123-.532-4.402-1.43l1.395-2.624c.814.715 1.778 1.296 2.89 1.296.764 0 1.578-.382 1.578-1.262 0-.914-1.28-1.23-1.976-1.43-2.044-.58-3.39-1.11-3.39-3.537 0-2.542 1.81-4.203 4.32-4.203 1.26 0 2.806.398 3.92 1.03l-1.297 2.524zM134.75 46.674l-1.428 3.14h-1.677l5.98-13.057 5.98 13.056h-1.678l-1.428-3.14h-5.75zm2.874-6.495l-2.226 5.065h4.452l-2.226-5.066zM144.502 36.69l9.402 9.85v-9.25h1.56v13.038l-9.4-9.85v9.335h-1.562V36.69zM157.56 37.29h2.59c3.838 0 7.027 2.025 7.027 6.194 0 4.27-3.123 6.33-7.076 6.33h-2.54V37.288zm1.56 11.094h.55c3.188 0 5.946-1.196 5.946-4.833 0-3.653-2.758-4.833-5.947-4.833h-.55v9.667zM76.59 57.224h4.984c2.69 0 4.55 1.245 4.55 4.12 0 2.956-1.593 4.252-4.434 4.252h-1.844v4.152H76.59V57.224zm3.257 5.747h.548c1.18 0 2.342 0 2.342-1.527 0-1.578-1.08-1.595-2.342-1.595h-.548v3.123zM90.828 59.98v2.094h3.67v2.757h-3.67v2.16h3.87v2.758h-7.126V57.224h7.126v2.757h-3.87zM109.93 63.253c0 4.053-2.906 6.91-6.926 6.91s-6.927-2.857-6.927-6.91c0-3.787 3.323-6.445 6.927-6.445 3.605 0 6.927 2.658 6.927 6.445zm-10.464.017c0 2.16 1.594 3.738 3.538 3.738 1.943 0 3.538-1.578 3.538-3.738 0-1.728-1.595-3.305-3.538-3.305-1.944 0-3.538 1.577-3.538 3.305zM111.444 57.224h4.983c2.69 0 4.55 1.245 4.55 4.12 0 2.956-1.593 4.252-4.434 4.252H114.7v4.152h-3.256V57.224zm3.255 5.747h.548c1.18 0 2.342 0 2.342-1.527 0-1.578-1.08-1.595-2.342-1.595h-.55v3.123zM125.68 66.99h3.903v2.758h-7.16V57.224h3.257v9.767zM133.903 59.98v2.094h3.67v2.757h-3.67v2.16h3.87v2.758h-7.125V57.224h7.125v2.757h-3.87zM142.093 69.05a.964.964 0 0 1-1.927 0c0-.514.432-.963.964-.963.53 0 .963.45.963.963z"></path><g><path d="M36.39 20.568c4.272 0 8.184 1.493 11.215 3.97-.355-3.36.617-6.18 2.292-6.44 1.786-.28 3.696 2.458 4.265 6.11.417 2.68-.017 5.097-.96 6.323-.25.326-.498.992-.34 1.43.63 1.728.954 3.59.954 5.526 0 4.4-1.732 8.406-4.568 11.416v5.88c.01.57-.406.957-.983.975h-2.658v-2.72a.34.34 0 0 0-.337-.34h-.11a.34.34 0 0 0-.34.34v2.72h-3.626v-2.72a.34.34 0 0 0-.338-.34h-.11a.34.34 0 0 0-.34.34v2.72H36.78v-2.72a.34.34 0 0 0-.338-.34h-.11a.34.34 0 0 0-.34.34v2.72h-3.626v-2.72a.34.34 0 0 0-.338-.34h-.11a.34.34 0 0 0-.338.34v2.72h-3.627v-2.72a.34.34 0 0 0-.338-.34h-.11a.34.34 0 0 0-.34.34v2.72h-2.744c-.535-.01-.88-.48-.888-.978V48.9c-2.836-3.01-4.567-7.017-4.567-11.416 0-1.928.374-3.768.946-5.508.207-.63-.167-1.182-.404-1.488-.945-1.22-1.34-3.632-.93-6.28.57-3.653 2.48-6.39 4.266-6.112 1.68.262 2.653 3.1 2.288 6.48 3.038-2.502 6.968-4.01 11.26-4.01zm8.662 23.325c2.614 0 4.734-2.96 4.734-6.61 0-3.648-2.12-6.608-4.734-6.608s-4.734 2.96-4.734 6.61c0 3.65 2.12 6.608 4.734 6.608zm-17.344 0c2.614 0 4.734-2.96 4.734-6.61 0-3.648-2.12-6.608-4.734-6.608-2.615 0-4.734 2.96-4.734 6.61 0 3.65 2.12 6.608 4.734 6.608zm8.66 1.913l-.84 1.455-.84 1.456h3.36l-.84-1.455-.84-1.454z" clip-rule="evenodd" fill-rule="evenodd"></path><path d="M17.79 63.124a.576.576 0 0 1-.424-.173.576.576 0 0 1-.173-.423c0-.158.058-.297.173-.417a.564.564 0 0 1 .425-.18h4.26c.21 0 .39.046.542.14a.467.467 0 0 1 .228.425.66.66 0 0 1-.094.346l-4.008 5.69h3.567c.168 0 .31.058.424.173a.577.577 0 0 1 .172.425.585.585 0 0 1-.173.416.564.564 0 0 1-.425.18h-4.62c-.22 0-.396-.054-.527-.164a.52.52 0 0 1-.196-.417.59.59 0 0 1 .11-.346l3.992-5.673H17.79zm5.737 1.57a2.783 2.783 0 0 1 .833-2.003 2.94 2.94 0 0 1 .904-.603c.34-.147.71-.22 1.108-.22a2.82 2.82 0 0 1 2.004.825c.257.256.46.557.613.903.15.346.227.713.227 1.1v1.132c0 .168-.058.31-.173.424a.577.577 0 0 1-.424.174h-3.898v.535c0 .22.044.43.134.628.088.2.206.374.353.526.146.152.32.27.525.354.205.084.417.125.637.125a1.636 1.636 0 0 0 1.51-.958l.014-.047a.557.557 0 0 1 .212-.275.582.582 0 0 1 .338-.102c.168 0 .31.06.424.18.116.122.173.26.173.418a.558.558 0 0 1-.047.22l-.03.063c-.22.504-.562.912-1.023 1.227-.46.314-.985.472-1.57.472a2.825 2.825 0 0 1-2.004-.826 2.918 2.918 0 0 1-.613-.905 2.698 2.698 0 0 1-.228-1.1v-2.265zm1.195.535h3.3v-.535c0-.22-.044-.43-.133-.63-.09-.198-.208-.373-.355-.525a1.528 1.528 0 0 0-.526-.354 1.663 1.663 0 0 0-.638-.126 1.64 1.64 0 0 0-1.524 1.006c-.084.2-.126.41-.126.63v.533zm5.344-.535a2.783 2.783 0 0 1 .832-2.004 2.94 2.94 0 0 1 .904-.603c.34-.147.71-.22 1.108-.22a2.82 2.82 0 0 1 2.004.825c.257.256.46.557.613.903.152.346.228.713.228 1.1v1.132c0 .168-.058.31-.173.424a.577.577 0 0 1-.424.174H31.26v.535c0 .22.044.43.133.628.09.2.207.374.354.526.147.152.322.27.526.354.205.084.417.125.637.125a1.636 1.636 0 0 0 1.51-.958l.014-.047a.557.557 0 0 1 .212-.275.582.582 0 0 1 .338-.102c.168 0 .31.06.425.18.114.122.172.26.172.418a.558.558 0 0 1-.048.22l-.03.063c-.22.504-.56.912-1.022 1.227-.46.314-.985.472-1.572.472a2.825 2.825 0 0 1-2.004-.826 2.926 2.926 0 0 1-.613-.905 2.704 2.704 0 0 1-.228-1.1v-2.265zm1.194.534h3.3v-.535c0-.22-.044-.43-.133-.63-.09-.198-.207-.373-.354-.525a1.527 1.527 0 0 0-.526-.354 1.663 1.663 0 0 0-.637-.126 1.64 1.64 0 0 0-1.65 1.635v.534zm4.762 3.898c0-.168.057-.31.173-.425a.58.58 0 0 1 .424-.173c.156 0 .295.058.416.173.12.115.18.257.18.425 0 .167-.057.31-.173.424a.577.577 0 0 1-.424.173.585.585 0 0 1-.418-.173.565.565 0 0 1-.18-.424zm5.957-9.368c0-.167.056-.31.172-.424a.577.577 0 0 1 .424-.173c.157 0 .296.057.417.173.12.115.18.257.18.424v7.2c0 .386-.076.753-.228 1.098a2.936 2.936 0 0 1-.613.904 2.82 2.82 0 0 1-2.004.826 2.77 2.77 0 0 1-1.108-.22 2.94 2.94 0 0 1-.903-.606 2.785 2.785 0 0 1-.833-2.004v-2.263c0-.388.076-.754.228-1.1a2.94 2.94 0 0 1 .613-.904 2.822 2.822 0 0 1 2.003-.824c.304 0 .595.047.873.142.28.094.538.225.78.392v-2.64zm-3.302 7.2a1.638 1.638 0 0 0 1.65 1.634c.22 0 .432-.043.637-.127.204-.083.38-.202.526-.353.148-.152.266-.328.355-.527.09-.198.133-.408.133-.628v-2.265a1.612 1.612 0 0 0-.48-1.155 1.634 1.634 0 0 0-1.17-.48c-.22 0-.432.042-.636.126-.205.084-.38.202-.527.354a1.828 1.828 0 0 0-.353.526c-.09.2-.134.41-.134.63v2.263zm5.47-2.265a2.79 2.79 0 0 1 .832-2.004 2.94 2.94 0 0 1 .904-.603c.34-.147.71-.22 1.108-.22a2.823 2.823 0 0 1 2.004.825c.257.256.46.557.613.903.15.346.227.713.227 1.1v2.264a2.786 2.786 0 0 1-.833 2.003c-.262.256-.566.458-.91.605-.347.146-.714.22-1.102.22a2.825 2.825 0 0 1-2.004-.826 2.918 2.918 0 0 1-.612-.903 2.704 2.704 0 0 1-.228-1.1v-2.265zm1.194 2.264c0 .22.045.428.134.627.09.2.207.375.353.527.146.15.32.27.526.353.204.084.416.126.636.126a1.635 1.635 0 0 0 1.525-1.006c.083-.2.125-.408.125-.628v-2.265c0-.22-.044-.43-.133-.63-.09-.198-.208-.373-.355-.525a1.53 1.53 0 0 0-.526-.354 1.663 1.663 0 0 0-.638-.126 1.637 1.637 0 0 0-1.65 1.635v2.264zm5.234-2.265a2.783 2.783 0 0 1 .833-2.004c.26-.255.562-.457.902-.603.34-.147.71-.22 1.108-.22a2.823 2.823 0 0 1 2.004.825c.257.256.46.557.613.903.152.346.228.713.228 1.1v4.967c0 .388-.076.754-.228 1.1a2.934 2.934 0 0 1-.613.904 2.82 2.82 0 0 1-2.004.825.577.577 0 0 1-.424-.172.576.576 0 0 1-.173-.424c0-.168.057-.31.173-.425a.578.578 0 0 1 .424-.174c.22 0 .432-.04.637-.125.204-.083.38-.2.526-.353.147-.152.265-.328.354-.526.09-.198.134-.408.134-.628v-.393a2.806 2.806 0 0 1-1.65.518 2.82 2.82 0 0 1-2.004-.826 2.913 2.913 0 0 1-.612-.904 2.704 2.704 0 0 1-.228-1.1v-2.263zm1.194 2.264c0 .22.045.428.134.627.088.2.207.375.353.527.147.15.322.27.527.353a1.694 1.694 0 0 0 1.265.008c.2-.078.372-.188.518-.33.147-.14.265-.306.354-.495.09-.19.14-.393.15-.613v-2.342c0-.22-.044-.43-.133-.628a1.83 1.83 0 0 0-.354-.527 1.53 1.53 0 0 0-.526-.353 1.664 1.664 0 0 0-.637-.126 1.64 1.64 0 0 0-1.525 1.007c-.083.2-.125.408-.125.628v2.264z"></path></g><path stroke-miterlimit="10" fill="none" stroke="#231f20" stroke-width=".732" stroke-linecap="round" stroke-linejoin="round" d="M66.145 13.37v59.26"></path></svg>
