<svg xmlns="http://www.w3.org/2000/svg" xmlns:xlink="http://www.w3.org/1999/xlink" version="1.1" id="Layer_1" x="0px" y="0px" width="100px" height="34px" viewBox="0 0 100 34" enable-background="new 0 0 100 34" xml:space="preserve">
                            <g>
                                <polygon fill="#FFFFFF" points="6.056,26.777 6.056,26.779 6.056,26.79  "></polygon>
                                <path fill="#FFFFFF" d="M5.999,27.109c-0.008,0-0.016,0-0.024,0C5.983,27.109,5.994,27.109,5.999,27.109"></path>
                                <path fill="#FFFFFF" d="M1.325,3.356c-0.064,0-0.126,0.023-0.172,0.063c-0.045,0.04-0.07,0.093-0.07,0.149l0.002,0.55   c0,0.095,0.069,0.177,0.173,0.201L1.341,4.34c0.192,0.043,0.481,0.111,0.711,0.338C2.33,4.954,2.344,5.3,2.344,5.303l0.06,14.872   l0.007,2.216l-0.016,3.604c0,0.013,0,0.026,0,0.044c0,0.161-0.03,0.49-0.178,0.68c-0.344,0.439-0.804,0.487-0.823,0.49   c-0.122,0.012-0.217,0.102-0.218,0.209L1.173,28.1c0,0.055,0.025,0.108,0.07,0.148c0.045,0.039,0.107,0.062,0.172,0.062   l10.016-0.023c0.125,0,0.229-0.084,0.241-0.193l0.685-6.884c0.006-0.06-0.016-0.117-0.062-0.16   c-0.045-0.043-0.11-0.069-0.178-0.069l-1.263-0.002c-0.121,0-0.224,0.08-0.24,0.187l-0.332,2.293   c-0.002,0.009-0.189,1.166-0.249,1.437c-0.054,0.244-0.179,0.494-0.22,0.576c-0.006,0.014-0.014,0.028-0.014,0.028   C9.683,25.747,9.47,25.98,9.17,26.191c-0.634,0.449-1.319,0.474-1.326,0.475c0,0-1.44-0.014-1.788-0.018   c0-0.199-0.015-8.068-0.015-8.068S5.978,5.262,5.978,5.229c0.003-0.021,0.055-0.35,0.367-0.608c0.25-0.207,0.703-0.277,0.708-0.277   c0.116-0.018,0.201-0.106,0.201-0.209V3.568c0-0.117-0.108-0.212-0.242-0.212H1.325z M2.234,4.539   C1.917,4.224,1.506,4.164,1.327,4.117L1.325,3.568h5.688v0.566c0,0-0.525,0.076-0.834,0.333C5.783,4.794,5.735,5.214,5.735,5.214   s0.063,13.212,0.064,13.368c0.001,0.154,0.015,8.169,0.015,8.169s0.008,0.071,0.039,0.088c0.05,0.027,0.124,0.021,0.124,0.021   l1.875,0.019c0,0,0.76-0.017,1.471-0.521c0.527-0.373,0.673-0.715,0.709-0.791c0.037-0.072,0.179-0.353,0.241-0.631   c0.063-0.278,0.252-1.451,0.252-1.451l0.332-2.293l1.262,0.002l-0.685,6.884L1.417,28.102l0.003-0.681c0,0,0.579-0.046,0.998-0.58   c0.246-0.312,0.22-0.843,0.22-0.843s0.016-3.305,0.017-3.605c0-0.303-0.008-2.217-0.008-2.217L2.587,5.3   C2.587,5.3,2.58,4.882,2.234,4.539"></path>
                                <path fill="#FFFFFF" d="M25.523,3.457c-0.597,0.223-1.32,0.788-1.602,1.254c-0.31,0.512-0.333,0.977-0.334,0.996   c0,0.002,0.082,11.957,0.082,11.957c0,0.02-0.013,0.634,0.26,1.22c0.221,0.474,0.697,0.873,0.961,1.067   c0.343,0.255,0.972,0.486,1.602,0.594c0.585,0.1,1.048,0.089,1.222,0.086h0.046h0.022c0.741,0.005,1.271-0.102,1.585-0.193   c0.602-0.174,1.209-0.504,1.807-0.983c0.358-0.287,0.814-0.82,1.026-1.363c0.237-0.608,0.211-1.228,0.209-1.254v-3.441   c0-0.117-0.108-0.212-0.242-0.212h-1.456c-0.065,0-0.126,0.022-0.172,0.062c-0.045,0.04-0.07,0.094-0.07,0.15l0.01,3.531   c0,0.003,0,0.328-0.101,0.632c-0.088,0.264-0.274,0.5-0.37,0.586c-0.16,0.146-0.425,0.33-0.687,0.418   c-0.357,0.117-0.76,0.123-0.764,0.123c-0.015,0-0.27,0.012-0.537-0.064c-0.211-0.061-0.458-0.208-0.592-0.32   c-0.146-0.125-0.346-0.359-0.443-0.568c-0.115-0.246-0.128-0.485-0.128-0.487l-0.03-10.999c0-0.549,0.217-0.996,0.627-1.292   c0.261-0.188,1.203-0.599,2.08-0.038c0.85,0.545,0.91,1.704,0.91,1.715v1.792c0,0.117,0.108,0.212,0.242,0.212h1.444   c0.064,0,0.125-0.023,0.171-0.062c0.045-0.041,0.07-0.094,0.07-0.151l-0.011-4.85c0-0.117-0.109-0.212-0.242-0.212h-1.482   c-0.133,0-0.242,0.095-0.242,0.212v0.245c-0.146-0.071-0.472-0.226-0.884-0.367c-0.562-0.192-1.192-0.327-1.726-0.371   C26.645,2.985,25.568,3.438,25.523,3.457 M23.829,5.715c0,0,0.019-0.43,0.307-0.906c0.263-0.435,0.958-0.961,1.494-1.162   c0,0,1.047-0.447,2.133-0.357c0.543,0.044,1.161,0.188,1.66,0.357c0.5,0.17,0.881,0.369,0.932,0.392   c0.05,0.021,0.161,0.051,0.218,0.021c0.059-0.031,0.062-0.123,0.062-0.123V3.572h1.482l0.013,4.847h-1.444V6.621   c0,0-0.051-1.263-1.009-1.878c-0.958-0.615-2.02-0.213-2.377,0.045c-0.483,0.349-0.714,0.864-0.714,1.456   c0,0.593,0.03,11.007,0.03,11.007s0.012,0.272,0.146,0.56c0.117,0.252,0.346,0.51,0.499,0.64c0.146,0.124,0.423,0.295,0.685,0.37   c0.318,0.092,0.614,0.074,0.614,0.074s0.442-0.004,0.847-0.137c0.341-0.111,0.64-0.345,0.776-0.467   c0.135-0.122,0.333-0.391,0.428-0.675c0.114-0.34,0.111-0.691,0.111-0.691l-0.01-3.531h1.456v3.451c0,0,0.029,0.599-0.196,1.176   c-0.206,0.527-0.653,1.027-0.96,1.274c-0.337,0.271-0.962,0.722-1.72,0.94c-0.69,0.199-1.424,0.183-1.531,0.183   c-0.107,0-0.59,0.022-1.223-0.083c-0.571-0.097-1.172-0.311-1.491-0.547c-0.287-0.213-0.703-0.577-0.894-0.987   c-0.257-0.552-0.242-1.141-0.242-1.141L23.829,5.715z"></path>
                                <path fill="#FFFFFF" d="M25.283,2.995c-0.003,0.002-0.009,0.004-0.009,0.004l0,0C25.273,2.999,25.27,3,25.269,3   c-0.001,0.001-0.002,0.002-0.003,0.002c-0.725,0.284-1.517,0.908-1.857,1.47c-0.365,0.604-0.399,1.154-0.402,1.215   c0,0.004,0,0.021,0,0.021l0.083,11.959c0,0,0,0.008,0,0.022c0,0.129,0.016,0.77,0.303,1.386c0.268,0.573,0.818,1.039,1.123,1.264   c0.502,0.373,1.293,0.608,1.868,0.704c0.646,0.109,1.153,0.1,1.344,0.096c0,0,0.035,0,0.038,0h0.015   c0.821,0.006,1.417-0.115,1.772-0.219c0.68-0.197,1.358-0.564,2.016-1.093c0.382-0.308,0.921-0.903,1.184-1.573   c0.218-0.561,0.241-1.125,0.241-1.343l-0.001-0.08v-3.946c0-0.116-0.108-0.211-0.242-0.211H30.13c-0.064,0-0.126,0.022-0.171,0.062   s-0.07,0.094-0.07,0.15l0.012,4.04c0,0.002-0.002,0.26-0.079,0.489c-0.056,0.169-0.187,0.336-0.229,0.375   c-0.12,0.108-0.313,0.241-0.475,0.295c-0.256,0.084-0.565,0.09-0.567,0.09c-0.005,0-0.031,0.001-0.031,0.001   c-0.006,0-0.163,0.004-0.316-0.04c-0.116-0.032-0.288-0.134-0.371-0.204c-0.086-0.074-0.242-0.25-0.309-0.395   c-0.074-0.157-0.085-0.316-0.085-0.318v-0.001c0-0.152-0.03-10.975-0.03-10.975c0-0.398,0.14-0.702,0.417-0.901   c0.13-0.094,0.784-0.394,1.367-0.021c0.614,0.395,0.673,1.314,0.673,1.324v2.282c0,0.117,0.108,0.212,0.242,0.212h2.605   c0.064,0,0.126-0.022,0.172-0.062c0.045-0.04,0.07-0.094,0.07-0.15L32.94,3.063c0-0.116-0.109-0.21-0.242-0.21h-2.642   c-0.114,0-0.205,0.07-0.23,0.163c-0.038-0.014-0.104-0.039-0.104-0.039c-0.611-0.209-1.297-0.356-1.882-0.404   C26.574,2.469,25.391,2.95,25.283,2.995 M27.817,2.784c0.563,0.046,1.226,0.188,1.816,0.39c0.156,0.054,0.294,0.107,0.422,0.161   v-0.27h2.642l0.015,5.863h-2.605V6.635c-0.002-0.038-0.067-1.03-0.772-1.483c-0.715-0.459-1.495-0.095-1.664,0.027   c-0.334,0.242-0.504,0.601-0.504,1.064c0,0,0.031,10.957,0.031,10.99c0.001,0.017,0.015,0.198,0.102,0.385   c0.084,0.18,0.264,0.381,0.366,0.466c0.105,0.089,0.307,0.208,0.462,0.253c0.201,0.06,0.398,0.052,0.401,0.052l0.025-0.002   c0.003,0,0.351-0.006,0.649-0.104c0.21-0.069,0.435-0.229,0.562-0.346c0.067-0.06,0.22-0.258,0.288-0.462   c0.088-0.261,0.088-0.544,0.088-0.548l-0.012-4.041h2.618v3.953c0,0.014,0.001,0.036,0.001,0.073c0,0.208-0.022,0.744-0.229,1.273   c-0.247,0.633-0.756,1.195-1.117,1.485c-0.633,0.509-1.282,0.86-1.93,1.05c-0.338,0.098-0.906,0.213-1.694,0.206h-0.02h-0.039   c-0.185,0.005-0.673,0.013-1.293-0.092c-0.543-0.091-1.291-0.312-1.756-0.657c-0.288-0.214-0.808-0.65-1.056-1.184   c-0.299-0.641-0.286-1.314-0.285-1.328L23.248,5.707V5.696c0.002-0.056,0.033-0.563,0.374-1.125c0.319-0.526,1.1-1.137,1.779-1.391   l-0.026,0.011C25.424,3.17,26.583,2.683,27.817,2.784"></path>
                                <path fill="#FFFFFF" d="M38.176,5.937L37.72,5.94c-0.119,0.001-0.22,0.077-0.237,0.18l-1.041,5.945   c-0.01,0.061,0.01,0.123,0.055,0.17c0.046,0.046,0.114,0.073,0.184,0.073h2.63c0.071,0,0.139-0.027,0.185-0.074   c0.046-0.047,0.065-0.11,0.054-0.172l-1.133-5.948C38.396,6.011,38.294,5.936,38.176,5.937 M37.722,6.151l0.455-0.003l1.135,5.949   h-2.63L37.722,6.151z"></path>
                                <path fill="#FFFFFF" d="M35.236,3.343c-0.133,0-0.241,0.094-0.242,0.21l-0.005,0.582c-0.001,0.103,0.083,0.191,0.197,0.21   c0.002,0.001,0.245,0.041,0.462,0.145c0.138,0.065,0.261,0.178,0.321,0.26c0.075,0.1,0.159,0.27,0.18,0.423   c0.031,0.218-0.016,0.428-0.017,0.43C36.13,5.612,34.16,16.835,34.16,16.835c-0.05,0.239-0.154,0.631-0.224,0.739   c-0.065,0.1-0.169,0.261-0.296,0.39c-0.163,0.167-0.356,0.302-0.358,0.302c-0.058,0.041-0.092,0.103-0.092,0.166v0.518   c0,0.062,0.032,0.124,0.088,0.162c0.057,0.041,0.13,0.058,0.201,0.046l3.201-0.56c0.113-0.02,0.194-0.104,0.194-0.207v-0.58   c0-0.058-0.027-0.112-0.075-0.153c-0.048-0.04-0.113-0.06-0.178-0.058c-0.001,0-0.148,0.006-0.298-0.029   c-0.135-0.03-0.277-0.113-0.321-0.149c-0.037-0.031-0.117-0.133-0.143-0.224c-0.011-0.042-0.015-0.086-0.015-0.123   c0-0.055,0.008-0.096,0.008-0.097c0-0.003,0.537-2.993,0.627-3.491c0.169,0,2.976,0,3.022,0c0.084,0.423,0.532,2.66,0.532,2.66   c0,0.003,0.03,0.15,0.03,0.304c0,0.027-0.001,0.054-0.003,0.082c-0.009,0.122-0.064,0.239-0.092,0.283   c-0.03,0.048-0.147,0.178-0.263,0.252c-0.147,0.095-0.312,0.142-0.314,0.142c-0.1,0.029-0.167,0.11-0.167,0.201v0.576   c0,0.06,0.029,0.117,0.08,0.156c0.051,0.041,0.119,0.061,0.187,0.053l4.466-0.42c0.123-0.012,0.216-0.104,0.216-0.211v-0.7   c0-0.086-0.081-0.17-0.172-0.203l-0.225-0.079c-0.129-0.059-0.239-0.138-0.277-0.173c-0.032-0.032-0.129-0.127-0.185-0.234   c-0.071-0.137-0.112-0.296-0.112-0.298c0-0.001-1.849-9.925-1.849-9.925c-0.001-0.004-0.087-0.449-0.087-0.449L41.242,5.2   c0-0.086,0-0.189,0.087-0.363c0.052-0.103,0.193-0.209,0.247-0.249c0.055-0.042,0.228-0.139,0.413-0.18   c0.186-0.042,0.394-0.031,0.396-0.031c0.066,0.004,0.132-0.017,0.181-0.056c0.049-0.041,0.077-0.096,0.077-0.155V3.554   c0-0.116-0.108-0.211-0.242-0.211H35.236z M35.236,3.554h7.165v0.613c0,0-0.244-0.014-0.472,0.036   c-0.222,0.049-0.427,0.162-0.511,0.225c-0.07,0.052-0.236,0.177-0.31,0.324C41.003,4.961,41,5.095,41,5.198   c0,0.051,0,0.152,0.028,0.334c0.022,0.143,0.088,0.455,0.088,0.455l1.851,9.938c0,0,0.045,0.178,0.129,0.339   c0.066,0.127,0.172,0.235,0.224,0.286c0.063,0.062,0.201,0.154,0.346,0.221c0.126,0.058,0.267,0.095,0.267,0.095v0.7l-4.466,0.422   V17.41c0,0,0.199-0.054,0.383-0.173c0.151-0.097,0.289-0.25,0.332-0.321c0.042-0.068,0.109-0.213,0.121-0.372   c0.017-0.21-0.03-0.436-0.03-0.436l-0.544-2.719c0,0-0.006-0.051-0.068-0.086c-0.062-0.035-0.133-0.028-0.133-0.028h-3.126   c0,0-0.064-0.003-0.101,0.021c-0.043,0.029-0.045,0.079-0.045,0.079l-0.64,3.564c0,0-0.033,0.152,0.01,0.306   c0.038,0.137,0.146,0.272,0.211,0.329c0.068,0.056,0.245,0.158,0.426,0.199c0.189,0.043,0.37,0.037,0.37,0.037v0.58l-3.201,0.558   v-0.517c0,0,0.21-0.145,0.393-0.33c0.148-0.151,0.268-0.34,0.323-0.424c0.121-0.187,0.252-0.811,0.252-0.811l1.97-11.223   c0,0,0.056-0.24,0.02-0.498c-0.026-0.189-0.126-0.389-0.217-0.511c-0.085-0.115-0.238-0.249-0.408-0.331   c-0.255-0.123-0.534-0.167-0.534-0.167L35.236,3.554z"></path>
                                <path fill="#FFFFFF" d="M42.401,2.834H34.66c-0.133,0-0.241,0.093-0.242,0.21l-0.013,1.508c-0.001,0.102,0.082,0.189,0.196,0.209   l0.477,0.081c0.033,0.006,0.18,0.038,0.293,0.092c0.042,0.021,0.096,0.069,0.113,0.091c0.036,0.048,0.082,0.145,0.09,0.208   l0.007,0.095l-0.017,0.178c0,0.001-0.005,0.023-0.005,0.023c0,0.006-1.971,11.229-1.971,11.229   c-0.054,0.259-0.136,0.528-0.164,0.58c-0.045,0.069-0.132,0.203-0.222,0.294c-0.121,0.124-0.273,0.231-0.279,0.236   c0.001-0.001-0.219,0.149-0.219,0.149c-0.058,0.041-0.091,0.102-0.092,0.166L32.61,18.43v1.135c0,0.064,0.033,0.125,0.088,0.164   c0.056,0.041,0.129,0.058,0.201,0.045l4.362-0.76c0.113-0.021,0.195-0.106,0.195-0.209v-1.521c0-0.057-0.026-0.112-0.074-0.152   c-0.047-0.041-0.111-0.062-0.176-0.06l-0.605,0.018l-0.129-0.013c-0.01-0.003-0.027-0.009-0.044-0.018c0-0.002,0-0.005,0-0.005   c0,0.002,0.361-2.011,0.361-2.011s0.142-0.79,0.188-1.051h2.039c0.061,0.301,0.448,2.239,0.448,2.239l0.021,0.217l-0.002,0.046   c-0.001,0.021-0.012,0.051-0.021,0.068c-0.02,0.024-0.067,0.072-0.098,0.092c-0.059,0.038-0.139,0.066-0.156,0.071l-0.394,0.117   c-0.097,0.029-0.163,0.108-0.165,0.198l-0.005,0.366v1.144c0,0.06,0.029,0.117,0.08,0.157c0.051,0.04,0.12,0.061,0.188,0.054   l5.554-0.543c0.123-0.011,0.13-0.099,0.13-0.206l0.009-1.508c0-0.086-0.061-0.164-0.153-0.196l-0.263-0.127   c0.001,0-0.109-0.039-0.147-0.052c-0.009-0.005-0.117-0.069-0.119-0.07c0-0.003-0.079-0.096-0.079-0.096l-0.072-0.191   c0-0.003-1.844-9.903-1.844-9.903c0-0.002-0.076-0.386-0.084-0.434c-0.001-0.017-0.02-0.219-0.021-0.24   c0-0.052,0.004-0.08,0.031-0.139c0.012-0.01,0.099-0.083,0.099-0.083c0.019-0.012,0.108-0.058,0.177-0.074   c0.073-0.016,0.182-0.017,0.22-0.015l0.614,0.031c0.066,0.004,0.131-0.018,0.18-0.057s0.076-0.095,0.076-0.153l0.003-0.538V3.045   c0-0.116-0.109-0.211-0.242-0.211H42.401z M42.981,3.045v1.12l-0.003,0.538l-0.614-0.03C42.32,4.67,42.181,4.67,42.071,4.694   c-0.116,0.025-0.242,0.094-0.274,0.118c-0.115,0.085-0.148,0.126-0.157,0.143c-0.058,0.116-0.059,0.171-0.059,0.244l0.023,0.262   c0,0,0.084,0.432,0.085,0.441c0,0,1.84,9.877,1.848,9.917c0.01,0.04,0.043,0.146,0.087,0.231c0.015,0.029,0.051,0.081,0.128,0.157   c0.021,0.019,0.098,0.072,0.182,0.11l0.167,0.059l0.412,0.143v1.499l-5.626,0.53V17.41l0.005-0.367l0.395-0.116   c0.033-0.01,0.137-0.048,0.22-0.101c0.067-0.043,0.144-0.125,0.167-0.158c0.012-0.021,0.046-0.093,0.051-0.16   c0.001-0.019,0.001-0.04,0.001-0.06c0-0.104-0.016-0.213-0.024-0.254c0,0-0.387-1.933-0.483-2.414h-2.448   c-0.159,0.881-0.582,3.237-0.583,3.243c-0.002,0.011-0.003,0.029-0.003,0.048c0,0.018,0.001,0.039,0.005,0.053   c0.005,0.02,0.031,0.058,0.051,0.081c0.032,0.022,0.109,0.063,0.169,0.076c0.08,0.019,0.17,0.021,0.199,0.02l0.605-0.018v1.521   l-4.362,0.76V18.43v-0.246l0.22-0.152c0.002-0.002,0.171-0.119,0.312-0.262c0.103-0.105,0.196-0.25,0.255-0.339   c0.043-0.078,0.131-0.384,0.185-0.641l1.97-11.224l0.005-0.022c0-0.001,0.021-0.097,0.021-0.216c0-0.039-0.002-0.08-0.008-0.121   c-0.014-0.1-0.076-0.227-0.127-0.297c-0.036-0.049-0.119-0.123-0.2-0.162c-0.138-0.066-0.308-0.104-0.362-0.114l-0.477-0.082   l0.013-1.508H42.4h0.581V3.045z"></path>
                                <path fill="#FFFFFF" d="M46.8,3.291c-0.385,0.135-0.667,0.338-0.97,0.573c-0.691,0.533-0.764,1.344-0.767,1.378v2.935   c0,0.014,0,0.333,0.086,0.675c0.064,0.253,0.196,0.52,0.299,0.685c0.118,0.188,0.332,0.429,0.547,0.614   c0.228,0.197,0.459,0.335,0.469,0.341c0.007,0.004,2.505,1.39,2.505,1.39c0.006,0.004,0.252,0.136,0.448,0.274   c0.123,0.087,0.21,0.179,0.242,0.22l0.011,0.013c0.044,0.057,0.127,0.163,0.163,0.276c0.066,0.208,0.073,0.457,0.073,0.46v1.319   c0,0.007,0.005,0.364-0.094,0.676c-0.045,0.143-0.14,0.274-0.214,0.349c-0.197,0.2-0.406,0.345-0.605,0.418   c-0.281,0.104-0.597,0.107-0.658,0.106l-0.046,0.001c-0.096,0.001-0.294,0.005-0.495-0.051c-0.24-0.067-0.512-0.223-0.71-0.408   c-0.137-0.127-0.27-0.336-0.339-0.534c-0.082-0.232-0.086-0.438-0.086-0.441l-0.012-1.643c-0.001-0.117-0.109-0.21-0.242-0.21   h-1.104c-0.133,0-0.241,0.095-0.241,0.211l-0.01,4.539c0,0.057,0.025,0.109,0.071,0.148c0.045,0.041,0.107,0.062,0.171,0.062h1.143   c0.064,0,0.126-0.023,0.172-0.062c0.044-0.041,0.069-0.094,0.069-0.148c0-0.001-0.007-0.395-0.011-0.575   c0.21,0.111,0.789,0.412,1.173,0.542c0.47,0.16,1.116,0.256,1.727,0.256c0.555,0,1.044-0.048,1.625-0.278   c0.408-0.163,0.81-0.435,1.188-0.811c0.622-0.614,0.683-1.451,0.687-1.486v-2.486c0-0.014-0.002-0.322-0.086-0.658   c-0.067-0.264-0.207-0.548-0.306-0.71c-0.099-0.163-0.28-0.404-0.498-0.597c-0.286-0.253-0.614-0.448-0.629-0.455   c-0.007-0.005-2.458-1.339-2.458-1.339c-0.262-0.151-0.593-0.367-0.658-0.45c-0.053-0.066-0.191-0.237-0.249-0.383   C48.1,7.83,48.092,7.633,48.092,7.63V5.932c0-0.002,0.002-0.22,0.122-0.446c0.058-0.109,0.174-0.24,0.318-0.358   c0.251-0.205,0.653-0.343,0.998-0.343c0.371,0,1.076,0.199,1.41,0.625c0.133,0.171,0.268,0.344,0.328,0.511   c0.149,0.416,0.125,0.827,0.125,0.832l-0.002,0.718c0,0.117,0.108,0.212,0.241,0.212h1.181c0.133,0,0.239-0.095,0.239-0.212v-3.91   c0-0.117-0.106-0.212-0.239-0.212h-1.224c-0.134,0-0.241,0.095-0.241,0.212v0.465c-0.246-0.159-0.666-0.417-0.971-0.542   c-0.393-0.16-0.755-0.272-1.079-0.333c-0.521-0.097-1.04-0.104-1.062-0.104C48.051,3.044,47.39,3.085,46.8,3.291 M45.301,12.919   h1.104l0.013,1.645c0,0,0.002,0.233,0.097,0.501c0.077,0.217,0.225,0.458,0.394,0.616c0.224,0.209,0.527,0.386,0.813,0.465   c0.276,0.076,0.539,0.059,0.613,0.06c0.083,0.001,0.431-0.003,0.754-0.123c0.263-0.098,0.503-0.282,0.694-0.477   c0.099-0.101,0.209-0.259,0.263-0.429c0.11-0.346,0.103-0.733,0.103-0.733V13.12c0,0-0.006-0.273-0.08-0.511   c-0.05-0.158-0.161-0.291-0.209-0.353c-0.047-0.061-0.15-0.166-0.289-0.264c-0.211-0.149-0.47-0.288-0.47-0.288l-2.5-1.388   c0,0-0.22-0.131-0.437-0.317c-0.204-0.176-0.402-0.402-0.503-0.565c-0.088-0.141-0.215-0.39-0.275-0.629   c-0.081-0.322-0.081-0.628-0.081-0.628v-2.92c0,0,0.061-0.752,0.686-1.235c0.273-0.21,0.543-0.41,0.899-0.535   c0.548-0.191,1.167-0.231,1.344-0.229c0,0,0.51,0.006,1.014,0.1c0.428,0.08,0.842,0.242,1.027,0.318   c0.426,0.173,1.127,0.651,1.127,0.651s0.1,0.047,0.148,0.027s0.037-0.106,0.037-0.106V3.561h1.223v3.912h-1.18V6.767   c0,0,0.033-0.446-0.134-0.908c-0.072-0.199-0.22-0.387-0.358-0.566c-0.382-0.489-1.153-0.717-1.609-0.717   c-0.404,0-0.867,0.159-1.162,0.399c-0.155,0.126-0.296,0.276-0.374,0.423c-0.146,0.276-0.144,0.535-0.144,0.535v1.705   c0,0,0.007,0.226,0.101,0.461c0.07,0.176,0.219,0.362,0.279,0.435c0.134,0.167,0.729,0.509,0.729,0.509l2.451,1.334   c0,0,0.316,0.188,0.591,0.429c0.209,0.184,0.375,0.41,0.457,0.546c0.085,0.139,0.219,0.406,0.282,0.658   c0.08,0.316,0.08,0.611,0.08,0.611v2.474c0,0-0.051,0.792-0.625,1.358c-0.295,0.29-0.666,0.583-1.107,0.758   c-0.507,0.202-0.947,0.258-1.524,0.258c-0.578,0-1.189-0.088-1.64-0.241c-0.45-0.153-1.216-0.569-1.216-0.569   S46.584,16.573,46.5,16.6c-0.083,0.026-0.08,0.147-0.08,0.147l0.014,0.711h-1.143L45.301,12.919z"></path>
                                <path fill="#FFFFFF" d="M46.585,2.819c-0.471,0.165-0.808,0.408-1.139,0.664c-0.852,0.657-0.953,1.616-0.961,1.724l-0.001,0.019   L44.483,8.18c0,0.064,0.005,0.404,0.1,0.781c0.097,0.385,0.298,0.724,0.357,0.82c0.143,0.229,0.397,0.517,0.649,0.732   c0.254,0.219,0.502,0.371,0.55,0.399c0.003,0.002,0.02,0.011,0.02,0.011c0.003,0.003,2.502,1.389,2.502,1.389   c0.003,0.002,0.395,0.241,0.395,0.241l0.127,0.111l0.012,0.014c0.06,0.077,0.077,0.108,0.081,0.122   c0.036,0.112,0.05,0.275,0.051,0.337v1.316c0,0.05-0.003,0.313-0.072,0.531c-0.018,0.056-0.062,0.121-0.095,0.154   c-0.135,0.137-0.277,0.241-0.392,0.282c-0.126,0.047-0.305,0.067-0.425,0.066c-0.005,0-0.061,0.001-0.061,0.001   c-0.072,0-0.201,0.003-0.312-0.028c-0.145-0.041-0.332-0.149-0.461-0.271c-0.078-0.071-0.167-0.215-0.209-0.336   c-0.055-0.155-0.06-0.295-0.061-0.301l-0.016-2.141c-0.001-0.116-0.109-0.21-0.242-0.21h-2.26c-0.133,0-0.242,0.095-0.242,0.212   l-0.012,5.552c0,0.056,0.025,0.111,0.071,0.15c0.045,0.04,0.106,0.062,0.17,0.062h2.314c0.065,0,0.127-0.021,0.172-0.062   c0.044-0.039,0.069-0.094,0.069-0.148c0-0.001-0.002-0.113-0.004-0.211c0.137,0.059,0.261,0.107,0.365,0.145   c0.542,0.185,1.248,0.291,1.938,0.291c0.747,0,1.288-0.094,1.864-0.323c0.483-0.192,0.949-0.506,1.385-0.936   c0.74-0.731,0.822-1.687,0.83-1.794c0-0.004,0-0.021,0-0.026v-2.488c0-0.038-0.002-0.383-0.1-0.767   c-0.079-0.314-0.236-0.639-0.357-0.839c-0.058-0.094-0.269-0.424-0.6-0.716c-0.328-0.29-0.699-0.51-0.716-0.52   c-0.003-0.002-0.021-0.012-0.021-0.012c-0.005-0.002-2.457-1.336-2.457-1.336c-0.225-0.128-0.458-0.287-0.507-0.333   c-0.111-0.139-0.147-0.208-0.159-0.237c-0.047-0.119-0.055-0.243-0.055-0.249v-1.68c0,0.003,0.007-0.115,0.069-0.233   c0.021-0.04,0.087-0.117,0.187-0.199c0.142-0.115,0.407-0.206,0.603-0.206c0.257,0,0.734,0.153,0.929,0.403   c0.108,0.138,0.22,0.282,0.254,0.378c0.116,0.319,0.099,0.646,0.099,0.649c0,0.004-0.002,0.022-0.002,0.026V7.98   c0,0.117,0.108,0.211,0.242,0.211h2.34c0.135,0,0.241-0.095,0.241-0.211V3.053c0-0.117-0.106-0.211-0.241-0.211h-2.383   c-0.134,0-0.242,0.095-0.242,0.211v0.036c-0.049-0.022-0.1-0.047-0.144-0.066c-0.432-0.176-0.837-0.301-1.204-0.368   c-0.576-0.107-1.15-0.115-1.175-0.116C48.013,2.536,47.266,2.581,46.585,2.819 M48.241,2.75c0.023,0,0.574,0.007,1.127,0.111   c0.349,0.065,0.737,0.184,1.151,0.354c0.149,0.061,0.32,0.15,0.488,0.244V3.053h2.383V7.98h-2.34V6.751l0.001-0.015   c0-0.004,0.021-0.365-0.108-0.725c-0.045-0.125-0.166-0.279-0.284-0.434c-0.252-0.323-0.818-0.495-1.129-0.495   c-0.257,0-0.579,0.111-0.767,0.263c-0.112,0.092-0.202,0.19-0.242,0.265c-0.087,0.164-0.091,0.324-0.091,0.322v1.692   c0.001,0.013,0.01,0.16,0.069,0.307c0.041,0.103,0.153,0.244,0.198,0.301c0.064,0.064,0.337,0.246,0.567,0.378l2.452,1.334   l0.019,0.011c0.016,0.008,0.369,0.218,0.68,0.492c0.307,0.271,0.504,0.578,0.557,0.666c0.114,0.188,0.264,0.493,0.336,0.787   c0.092,0.359,0.096,0.684,0.096,0.721v2.488v0.015c-0.008,0.1-0.084,0.987-0.771,1.666c-0.412,0.407-0.85,0.704-1.303,0.884   c-0.544,0.217-1.055,0.305-1.764,0.305c-0.66,0-1.335-0.102-1.85-0.275c-0.211-0.072-0.469-0.188-0.702-0.3   c0,0.006,0.011,0.563,0.011,0.563h-2.314l0.012-5.553h2.26c0,0,0.016,2.142,0.016,2.145c0,0.002,0.005,0.17,0.071,0.358   c0.054,0.152,0.161,0.324,0.263,0.418c0.159,0.148,0.381,0.277,0.565,0.328c0.148,0.042,0.303,0.039,0.387,0.037h0.057   c0.135,0.001,0.352-0.021,0.522-0.083c0.148-0.055,0.319-0.176,0.479-0.339c0.051-0.052,0.115-0.145,0.144-0.235   c0.078-0.245,0.082-0.532,0.082-0.588v-1.322c-0.002-0.059-0.016-0.246-0.06-0.388c-0.02-0.065-0.083-0.143-0.117-0.186   l-0.012-0.015c-0.015-0.019-0.079-0.089-0.174-0.157c-0.178-0.125-0.406-0.248-0.417-0.254l-2.498-1.387l-0.017-0.009   c-0.027-0.017-0.271-0.164-0.516-0.375c-0.236-0.204-0.474-0.472-0.606-0.684c-0.056-0.089-0.244-0.406-0.333-0.763   c-0.091-0.362-0.094-0.694-0.094-0.737v-2.94l0.001-0.017c0.007-0.099,0.1-0.979,0.88-1.581c0.315-0.243,0.634-0.474,1.068-0.625   C47.318,2.791,48.024,2.749,48.241,2.75"></path>
                                <path fill="#FFFFFF" d="M54.594,3.346c-0.064,0-0.126,0.022-0.172,0.062c-0.045,0.04-0.07,0.094-0.07,0.15l0.004,0.604   c0,0.102,0.084,0.189,0.197,0.208c0.002,0,0.194,0.031,0.375,0.104c0.166,0.068,0.321,0.178,0.381,0.232   c0.037,0.034,0.162,0.157,0.219,0.293c0.068,0.17,0.076,0.363,0.076,0.365c0,0,0.03,10.196,0.03,10.197   c0-0.004-0.007,0.175-0.063,0.346c-0.045,0.14-0.141,0.278-0.192,0.331C55.316,16.3,55.16,16.426,55,16.494   c-0.189,0.083-0.396,0.113-0.396,0.113c-0.117,0.018-0.203,0.105-0.203,0.209v0.639c0,0.107,0.095,0.199,0.218,0.209   c0.018,0.002,1.726,0.146,2.618,0.197c0.332,0.019,0.556,0.041,1.807,0.16l0.684,0.065c0.068,0.006,0.138-0.013,0.188-0.054   c0.051-0.04,0.08-0.098,0.08-0.157v-0.604c0-0.106-0.091-0.195-0.21-0.209c-0.001,0-0.148-0.019-0.305-0.077   c-0.176-0.067-0.371-0.185-0.434-0.239c-0.068-0.062-0.195-0.207-0.25-0.324c-0.074-0.161-0.08-0.316-0.08-0.318   c0,0-0.016-4.233-0.018-4.817c0.166,0,1.306-0.002,1.306-0.002c0.006,0,0.163,0,0.325,0.064c0.092,0.036,0.212,0.117,0.357,0.243   c0.058,0.047,0.151,0.174,0.213,0.304c0.082,0.169,0.123,0.34,0.123,0.342c0.023,0.099,0.123,0.169,0.236,0.169h1.057   c0.133,0,0.242-0.095,0.242-0.212V8.932c0-0.116-0.109-0.211-0.242-0.211h-1.08c-0.122,0-0.226,0.08-0.241,0.184   c0,0.002-0.021,0.145-0.095,0.289c-0.069,0.14-0.196,0.288-0.246,0.334c-0.04,0.038-0.165,0.152-0.303,0.206   C60.213,9.789,60.044,9.8,60.042,9.8c0,0-1.222-0.001-1.354-0.001c0-0.163-0.008-4.69-0.008-4.824c0.354,0,1.685,0,1.685,0   s0.292,0.006,0.575,0.089c0.193,0.056,0.394,0.183,0.479,0.248c0.102,0.076,0.279,0.257,0.361,0.42   c0.104,0.204,0.115,0.404,0.115,0.406v0.909c0,0.117,0.107,0.211,0.241,0.211h1.277c0.134,0,0.243-0.095,0.243-0.211v-3.49   c0-0.117-0.109-0.211-0.243-0.211H54.594z M54.594,3.557h8.821v3.489h-1.276V6.129c0,0-0.01-0.237-0.136-0.484   c-0.101-0.197-0.305-0.402-0.426-0.494c-0.112-0.085-0.337-0.224-0.562-0.289c-0.326-0.095-0.651-0.1-0.651-0.1h-1.763   c0,0-0.095-0.004-0.136,0.029c-0.039,0.033-0.028,0.112-0.028,0.112l0.01,4.981c0,0-0.01,0.074,0.029,0.102   c0.039,0.028,0.14,0.024,0.14,0.024h1.442c0,0,0.211-0.011,0.394-0.083c0.17-0.066,0.312-0.192,0.378-0.253   c0.066-0.062,0.21-0.231,0.292-0.395c0.089-0.177,0.114-0.347,0.114-0.347h1.08v3.267H61.26c0,0-0.044-0.19-0.136-0.382   c-0.073-0.152-0.185-0.303-0.267-0.374c-0.082-0.07-0.262-0.219-0.431-0.284c-0.219-0.086-0.424-0.082-0.424-0.082l-1.401,0.002   c0,0-0.062-0.013-0.107,0.029c-0.051,0.047-0.037,0.112-0.037,0.112l0.018,4.893c0,0,0.004,0.19,0.099,0.393   c0.073,0.158,0.229,0.326,0.302,0.392c0.087,0.078,0.309,0.208,0.51,0.284c0.191,0.074,0.367,0.093,0.367,0.093v0.604   c-1.884-0.181-2.109-0.205-2.501-0.227c-0.897-0.051-2.608-0.195-2.608-0.195v-0.639c0,0,0.238-0.034,0.465-0.132   c0.195-0.085,0.377-0.23,0.453-0.309c0.076-0.077,0.187-0.241,0.242-0.41c0.066-0.202,0.072-0.405,0.072-0.405L55.846,5.358   c0,0-0.007-0.225-0.091-0.43c-0.065-0.159-0.196-0.299-0.272-0.368c-0.08-0.074-0.262-0.2-0.453-0.278   c-0.213-0.086-0.434-0.121-0.434-0.121L54.594,3.557z"></path>
                                <path fill="#FFFFFF" d="M63.416,2.837h-9.404c-0.064,0-0.126,0.022-0.172,0.063c-0.045,0.04-0.07,0.094-0.07,0.149l0.006,1.534   c0.002,0.102,0.084,0.188,0.197,0.207l0.475,0.079c0.027,0.004,0.144,0.028,0.236,0.065c0.088,0.036,0.184,0.103,0.203,0.122   C54.938,5.1,54.975,5.153,54.98,5.17c0.028,0.069,0.043,0.174,0.043,0.21l0.031,10.167c-0.002,0.022-0.013,0.129-0.041,0.218   c-0.021,0.064-0.07,0.133-0.082,0.146c-0.02,0.02-0.117,0.096-0.189,0.128c-0.082,0.036-0.196,0.061-0.235,0.066l-0.481,0.073   c-0.115,0.018-0.2,0.104-0.201,0.207l-0.002,0.428v1.101c0,0.109,0.094,0.2,0.217,0.21l0.525,0.045   c0.299,0.024,1.795,0.149,2.636,0.198c0.319,0.019,0.542,0.039,1.778,0.158l1.328,0.127c0.068,0.008,0.137-0.012,0.188-0.053   c0.051-0.041,0.08-0.098,0.08-0.158v-1.607c0-0.105-0.087-0.194-0.207-0.209l-0.501-0.065l-0.154-0.04   c-0.105-0.041-0.23-0.115-0.259-0.136c-0.021-0.02-0.101-0.111-0.119-0.152c-0.024-0.055-0.035-0.12-0.038-0.149v-0.002   c0-0.087-0.011-3.412-0.014-4.286c0.271-0.001,0.724-0.001,0.724-0.001c0.009,0,0.054,0.005,0.087,0.017   c0,0.001,0.061,0.033,0.188,0.142c0.002,0.003,0.051,0.066,0.085,0.139l0.09,0.25c0,0.001,0.098,0.404,0.098,0.404   c0.023,0.098,0.121,0.168,0.234,0.168l0.473,0.001h1.637c0.133,0,0.242-0.095,0.242-0.211v-4.28c0-0.117-0.109-0.21-0.242-0.21   h-2.164c-0.12,0-0.223,0.076-0.238,0.181l-0.073,0.439L60.369,8.99c-0.037,0.073-0.118,0.171-0.139,0.19   c-0.078,0.072-0.119,0.091-0.119,0.092c0-0.001-0.088,0.015-0.103,0.018h-0.741c0-0.375-0.007-3.723-0.008-3.809   c0.326,0,1.104,0,1.104,0c0.013,0.002,0.213,0.011,0.393,0.063c0.081,0.024,0.214,0.098,0.283,0.151   c0.056,0.042,0.174,0.168,0.212,0.242c0.055,0.108,0.062,0.218,0.064,0.222l-0.002,1.394c0,0.117,0.108,0.212,0.242,0.212h2.438   c0.134,0,0.241-0.095,0.241-0.212V3.049c0-0.116-0.107-0.211-0.241-0.211L63.416,2.837L63.416,2.837z M63.996,3.049v4.504h-2.438   V6.145c-0.002-0.013-0.014-0.151-0.086-0.292c-0.057-0.11-0.197-0.258-0.274-0.317c-0.089-0.067-0.246-0.157-0.365-0.191   c-0.228-0.066-0.468-0.072-0.468-0.072l0,0H59.02c0.002,0.578,0.008,3.633,0.008,4.231h1.002c0.041-0.003,0.127-0.016,0.186-0.039   c0.028-0.012,0.092-0.044,0.195-0.14c0.029-0.028,0.131-0.148,0.183-0.249c0.052-0.104,0.069-0.21,0.069-0.211l0.072-0.44h2.162   v4.282h-1.635l-0.473-0.001l-0.098-0.403c0-0.002-0.034-0.149-0.103-0.289c-0.048-0.1-0.114-0.187-0.14-0.209   c-0.167-0.143-0.245-0.177-0.258-0.183c-0.076-0.03-0.158-0.037-0.188-0.037c0,0-0.554,0.001-0.967,0.001   c0.004,1.119,0.016,4.511,0.016,4.511c0,0.001,0.006,0.11,0.057,0.216c0.035,0.077,0.137,0.19,0.177,0.227   c0.039,0.032,0.19,0.124,0.327,0.176c0.109,0.042,0.216,0.056,0.217,0.056l0.501,0.064v1.607l-1.327-0.127   c-1.243-0.118-1.467-0.141-1.792-0.158c-0.896-0.051-2.558-0.192-2.627-0.198l-0.524-0.044v-1.099l0.004-0.429l0.48-0.072   c0.046-0.007,0.188-0.036,0.305-0.086c0.109-0.048,0.23-0.145,0.271-0.185c0.022-0.024,0.092-0.122,0.125-0.221   c0.036-0.109,0.048-0.235,0.05-0.277c-0.001-0.295-0.029-10.174-0.029-10.174c-0.002-0.042-0.016-0.172-0.058-0.274   c-0.021-0.052-0.081-0.129-0.146-0.188c-0.037-0.033-0.158-0.119-0.277-0.167c-0.115-0.047-0.251-0.075-0.293-0.082l-0.477-0.078   L54.011,3.05h9.404L63.996,3.049L63.996,3.049z"></path>
                                <path fill="#FFFFFF" d="M69.605,3.346l-4.639,0.012c-0.133,0.001-0.24,0.096-0.24,0.212v0.597c0,0.075,0.064,0.153,0.14,0.191   l0.264,0.136c0.116,0.073,0.214,0.151,0.246,0.188c0.049,0.055,0.147,0.165,0.201,0.284c0.063,0.147,0.08,0.326,0.081,0.328   c-0.001-0.016,0.013,11.351,0.013,11.351c0,0.001-0.001,0.173-0.048,0.341c-0.043,0.159-0.133,0.309-0.168,0.35   c-0.064,0.073-0.219,0.219-0.385,0.297c-0.18,0.086-0.399,0.111-0.401,0.112c-0.12,0.013-0.21,0.103-0.21,0.209v0.623   c0,0.1,0.079,0.187,0.189,0.207l2.854,0.543c0.429,0.082,2.388,0.512,2.407,0.516c0.072,0.017,0.15,0.003,0.209-0.038   c0.058-0.041,0.092-0.102,0.092-0.166l-0.003-0.684c-0.001-0.096-0.074-0.178-0.179-0.203c-0.002,0-0.155-0.038-0.309-0.118   c-0.216-0.114-0.424-0.28-0.469-0.333c-0.041-0.049-0.179-0.217-0.238-0.383c-0.064-0.186-0.065-0.378-0.065-0.391   c0,0-0.003-11.882-0.003-12.116c0.002-0.021,0.023-0.213,0.084-0.392c0.035-0.109,0.104-0.216,0.141-0.258   c0.051-0.06,0.191-0.18,0.331-0.269l0.206-0.107c0.072-0.039,0.143-0.118,0.143-0.192V3.558c0-0.056-0.025-0.11-0.072-0.15   C69.732,3.368,69.671,3.346,69.605,3.346 M64.969,3.569l4.639-0.012v0.635c0,0-0.121,0.047-0.248,0.129   c-0.148,0.094-0.312,0.228-0.383,0.313c-0.054,0.062-0.135,0.19-0.179,0.324C68.727,5.172,68.704,5.4,68.704,5.4l0.003,12.125   c0,0-0.003,0.229,0.077,0.455c0.067,0.19,0.213,0.375,0.274,0.446c0.074,0.087,0.313,0.271,0.537,0.388   c0.186,0.099,0.37,0.143,0.37,0.143l0.003,0.682c0,0-1.979-0.434-2.414-0.518c-0.437-0.084-2.854-0.544-2.854-0.544v-0.623   c0,0,0.262-0.029,0.487-0.136c0.215-0.103,0.396-0.28,0.459-0.355c0.062-0.07,0.164-0.25,0.211-0.428   c0.055-0.197,0.055-0.392,0.055-0.392L65.898,5.276c0,0-0.019-0.208-0.098-0.388C65.734,4.74,65.62,4.612,65.566,4.55   c-0.055-0.06-0.176-0.152-0.297-0.228c-0.146-0.094-0.302-0.156-0.302-0.156L64.969,3.569L64.969,3.569z"></path>
                                <path fill="#FFFFFF" d="M70.188,2.837l-5.799,0.015c-0.134,0-0.242,0.095-0.242,0.21v1.394c0,0.075,0.047,0.144,0.121,0.182   l0.334,0.17c-0.002,0,0.159,0.083,0.194,0.101c0.009,0.007,0.136,0.099,0.136,0.099c0.014,0.017,0.082,0.093,0.104,0.142   c0.021,0.048,0.034,0.125,0.041,0.17c0,0.028,0.014,11.324,0.014,11.324s-0.003,0.117-0.03,0.223   c-0.021,0.075-0.062,0.148-0.076,0.17c-0.047,0.052-0.133,0.124-0.188,0.149c-0.063,0.031-0.174,0.052-0.205,0.056l-0.501,0.06   c-0.117,0.014-0.207,0.103-0.208,0.208l-0.004,0.443v1.033c0,0.1,0.08,0.187,0.19,0.207l3.31,0.631   c0.294,0.057,1.42,0.3,2.375,0.509c0.019,0.004,0.741,0.162,0.741,0.162c0.072,0.017,0.148,0.002,0.208-0.039   c0.058-0.039,0.093-0.103,0.093-0.166c0-0.001-0.009-1.718-0.009-1.718c0-0.094-0.071-0.178-0.175-0.202l-0.424-0.106l-0.166-0.062   c-0.146-0.078-0.293-0.192-0.316-0.217c-0.057-0.068-0.117-0.161-0.137-0.217c-0.029-0.084-0.039-0.199-0.039-0.238   c0,0-0.004-11.819-0.004-12.089c0.006-0.045,0.022-0.166,0.061-0.277l0.055-0.103c0.014-0.015,0.102-0.091,0.195-0.153   c0.023-0.012,0.421-0.22,0.421-0.22c0.062-0.033,0.103-0.087,0.113-0.149l0.056-0.313c0.004-0.011,0.004-0.021,0.004-0.032V3.048   c0-0.056-0.025-0.11-0.07-0.15C70.312,2.858,70.251,2.837,70.188,2.837 M70.188,3.048v1.145l-0.056,0.313L69.7,4.732   c-0.118,0.075-0.229,0.173-0.259,0.205c-0.019,0.022-0.063,0.097-0.088,0.165c-0.045,0.137-0.064,0.283-0.069,0.325   c0,0.553,0.003,12.103,0.003,12.103c0,0.043,0.01,0.184,0.051,0.302c0.035,0.096,0.12,0.215,0.184,0.29   c0.045,0.045,0.213,0.175,0.375,0.261c0.108,0.058,0.225,0.087,0.226,0.087l0.425,0.106l0.008,1.716l-0.725-0.158   c-0.021-0.005-1.977-0.433-2.398-0.515l-3.311-0.632v-1.03l0.004-0.442l0.501-0.062c0.042-0.005,0.185-0.03,0.286-0.079   c0.105-0.049,0.222-0.156,0.271-0.213c0.021-0.029,0.082-0.135,0.111-0.243c0.035-0.133,0.037-0.272,0.037-0.272   S65.318,5.363,65.318,5.306c-0.004-0.042-0.021-0.151-0.059-0.232c-0.033-0.079-0.109-0.164-0.148-0.208   c-0.018-0.017-0.084-0.071-0.18-0.131l-0.209-0.108l-0.336-0.169V3.062l5.217-0.013L70.188,3.048z"></path>
                                <path fill="#FFFFFF" d="M71.604,3.349c-0.131,0-0.237,0.091-0.242,0.204l-0.024,0.594C71.332,4.24,71.4,4.325,71.502,4.355   c0.264,0.077,0.688,0.242,0.809,0.368c0.075,0.078,0.172,0.215,0.215,0.346c0.068,0.205,0.07,0.416,0.07,0.417v12.8   c0-0.007-0.011,0.209-0.07,0.39c-0.041,0.122-0.118,0.213-0.178,0.27c-0.053,0.049-0.174,0.121-0.32,0.162   c-0.195,0.058-0.405,0.069-0.407,0.069c-0.126,0.007-0.226,0.101-0.226,0.212v0.652c0,0.093,0.069,0.175,0.172,0.201   c0.021,0.006,2.043,0.54,3.433,0.951c1.387,0.41,4.278,1.375,4.308,1.385c0.067,0.021,0.145,0.018,0.207-0.014   c0.062-0.032,0.105-0.086,0.117-0.148l1.207-6.242c0.012-0.061-0.008-0.124-0.054-0.171s-0.113-0.076-0.185-0.076l-0.759-0.002   c-0.108,0-0.202,0.063-0.233,0.154l-0.986,3.037c-0.001,0.002-0.094,0.204-0.094,0.204c-0.08,0.139-0.196,0.285-0.291,0.367   c-0.086,0.073-0.31,0.213-0.447,0.28c-0.114,0.058-0.182,0.068-0.271,0.082c-0.093,0.017-0.438,0.036-0.617,0.002   c-0.031-0.006-0.078-0.019-0.078-0.019c-0.016-0.006-0.85-0.232-0.85-0.232s0,0.001,0,0c0,0-0.027-0.012-0.052-0.021   c-0.001-0.006-0.001-0.014-0.001-0.014s-0.012-14.44-0.012-14.442c0,0.005,0.012-0.189,0.109-0.374   c0.062-0.12,0.215-0.26,0.287-0.318c0.086-0.07,0.422-0.202,0.686-0.286c0.095-0.03,0.158-0.109,0.158-0.199V3.561   c0-0.117-0.107-0.212-0.241-0.212H71.604z M71.604,3.561h5.305v0.585c0,0-0.59,0.188-0.766,0.329   c-0.072,0.058-0.259,0.223-0.344,0.386c-0.121,0.229-0.133,0.463-0.133,0.463l0.012,14.434c0,0-0.007,0.106,0.036,0.155   c0.043,0.048,0.187,0.093,0.187,0.093l0.834,0.229c0,0,0.084,0.021,0.119,0.026c0.148,0.029,0.586,0.017,0.68,0.003   c0.09-0.014,0.195-0.029,0.365-0.104s0.408-0.232,0.509-0.319c0.12-0.104,0.253-0.275,0.336-0.421   c0.075-0.134,0.11-0.242,0.11-0.242l0.986-3.037l0.76,0.002l-1.207,6.241c0,0-2.908-0.972-4.316-1.388   c-1.409-0.417-3.439-0.952-3.439-0.952v-0.652c0,0,0.237-0.016,0.467-0.08c0.174-0.049,0.336-0.138,0.424-0.221   c0.084-0.08,0.181-0.201,0.23-0.354c0.071-0.209,0.081-0.448,0.081-0.448V5.485c0,0-0.001-0.238-0.081-0.476   c-0.056-0.167-0.172-0.33-0.263-0.423c-0.22-0.229-0.916-0.432-0.916-0.432L71.604,3.561z"></path>
                                <path fill="#FFFFFF" d="M90.346,3.341c-0.113,0-0.213,0.071-0.236,0.169c0,0-2.28,9.631-2.301,9.715   c-0.121-0.001-0.412-0.004-0.522-0.005c-0.009-0.02-0.019-0.044-0.019-0.044c0.002,0.006-2.32-9.661-2.32-9.661   c-0.024-0.099-0.123-0.168-0.237-0.168h-4.42c-0.063,0-0.128,0.022-0.173,0.063s-0.071,0.095-0.069,0.152l0.011,0.617   c0.002,0.102,0.088,0.188,0.203,0.206c0.002,0,0.211,0.031,0.406,0.111c0.178,0.072,0.339,0.196,0.406,0.261   c0.076,0.076,0.178,0.228,0.221,0.372c0.046,0.149,0.037,0.302,0.037,0.303c-0.001,0.014,0.01,15.457,0.01,15.457   c0,0.006,0.002,0.141-0.053,0.271c-0.055,0.128-0.178,0.26-0.241,0.313c-0.069,0.057-0.206,0.137-0.354,0.188   c-0.207,0.07-0.446,0.109-0.448,0.109c-0.115,0.019-0.199,0.105-0.199,0.209v0.732c0,0.084,0.062,0.161,0.147,0.195l1.717,0.668   l2.093,0.851c0.076,0.03,0.163,0.026,0.233-0.014c0.068-0.038,0.111-0.104,0.111-0.179v-0.646c0-0.086-0.06-0.163-0.149-0.196   c-0.003,0-0.205-0.074-0.4-0.181c-0.169-0.091-0.313-0.203-0.364-0.263c-0.068-0.079-0.201-0.254-0.26-0.409   c-0.074-0.198-0.081-0.394-0.081-0.396c0,0,0.015-11.474,0.017-12.585h0.607c0.233,0.943,3.129,12.667,3.129,12.667   c0.024,0.099,0.078,0.479,0.241,0.482c0.152,0.005,0.228-0.382,0.25-0.479c0,0,2.999-12.589,3.021-12.678   c0.151,0.002,0.504,0.005,0.646,0.006c-0.001,1.152-0.013,16.454-0.013,16.454c-0.011,0.277-0.074,0.651-0.151,0.736l-0.04,0.045   c-0.082,0.093-0.206,0.231-0.358,0.312c-0.205,0.105-0.474,0.142-0.477,0.143c-0.117,0.015-0.207,0.104-0.207,0.209V28.1   c0,0.117,0.108,0.213,0.241,0.213h5.742c0.063,0,0.126-0.021,0.171-0.062c0.046-0.04,0.07-0.094,0.07-0.149l-0.006-0.668   c-0.002-0.107-0.095-0.197-0.217-0.209c-0.002-0.002-0.184-0.02-0.354-0.07c-0.18-0.055-0.333-0.143-0.383-0.186   c-0.065-0.057-0.223-0.214-0.285-0.332c-0.086-0.169-0.09-0.324-0.09-0.326c0,0-0.012-20.95-0.012-20.951   c0,0.004,0.008-0.165,0.077-0.328c0.054-0.123,0.165-0.254,0.247-0.325c0.072-0.062,0.215-0.153,0.369-0.211   c0.207-0.082,0.422-0.122,0.423-0.122c0.112-0.022,0.192-0.108,0.192-0.208V3.553c0-0.117-0.108-0.212-0.242-0.212H90.346z    M80.29,3.559h4.419l2.322,9.667c0,0,0.027,0.105,0.076,0.153c0.049,0.047,0.129,0.053,0.129,0.053l0.641,0.006   c0,0,0.073-0.003,0.102-0.029c0.026-0.026,0.058-0.098,0.058-0.098l2.312-9.758h5.356v0.613c0,0-0.236,0.044-0.472,0.136   c-0.176,0.068-0.344,0.173-0.439,0.255c-0.102,0.086-0.236,0.242-0.305,0.401c-0.086,0.201-0.094,0.402-0.094,0.402l0.014,20.953   c0,0,0,0.195,0.111,0.412c0.08,0.155,0.264,0.334,0.334,0.396c0.084,0.071,0.274,0.174,0.472,0.233   c0.202,0.062,0.409,0.082,0.409,0.082l0.007,0.666h-5.742v-0.646c0,0,0.313-0.04,0.565-0.168c0.222-0.114,0.379-0.313,0.463-0.407   c0.184-0.199,0.205-0.867,0.205-0.867l0.014-16.52c0,0,0.005-0.078-0.051-0.12c-0.045-0.036-0.123-0.027-0.123-0.027l-0.775-0.006   c0,0-0.081-0.005-0.113,0.02C90.15,9.385,90.13,9.466,90.13,9.466l-3.037,12.716L83.938,9.457c0,0-0.014-0.074-0.045-0.097   s-0.101-0.014-0.101-0.014h-0.778c0,0-0.059-0.011-0.121,0.024c-0.031,0.017-0.027,0.093-0.027,0.093L82.85,22.146   c0,0,0.006,0.225,0.094,0.459c0.072,0.188,0.221,0.384,0.296,0.471c0.077,0.088,0.251,0.217,0.431,0.314   c0.217,0.117,0.438,0.196,0.438,0.196v0.646c0,0-1.125-0.463-2.097-0.852c-0.972-0.39-1.723-0.671-1.723-0.671v-0.733   c0,0,0.26-0.041,0.494-0.121c0.188-0.064,0.348-0.162,0.433-0.231c0.09-0.074,0.234-0.233,0.303-0.394   c0.072-0.174,0.065-0.345,0.065-0.345l-0.01-15.441c0,0,0.013-0.184-0.044-0.37c-0.055-0.18-0.176-0.362-0.274-0.459   c-0.095-0.091-0.282-0.228-0.483-0.311c-0.231-0.095-0.471-0.13-0.471-0.13L80.29,3.559z"></path>
                                <path fill="#FFFFFF" d="M96.553,26.979c-0.001-0.106-0.093-0.195-0.215-0.209l-0.513-0.051l-0.229-0.046   c-0.082-0.024-0.152-0.062-0.177-0.077c-0.062-0.059-0.137-0.144-0.151-0.17c-0.033-0.066-0.039-0.132-0.039-0.133L95.217,5.375   c0.001-0.019,0.014-0.102,0.041-0.165c0.016-0.036,0.069-0.106,0.11-0.14c0.019-0.016,0.103-0.074,0.198-0.111   c0.146-0.058,0.31-0.089,0.311-0.09l0.456-0.087c0.11-0.021,0.19-0.106,0.19-0.206l0.002-0.409V3.045   c0-0.117-0.108-0.212-0.243-0.212h-0.579h-5.829c-0.115,0-0.214,0.07-0.238,0.169c0,0-1.714,7.244-2.095,8.848   c-0.385-1.604-2.124-8.844-2.124-8.844c-0.022-0.098-0.123-0.167-0.237-0.167H79.7c-0.063,0-0.127,0.022-0.173,0.063   c-0.045,0.041-0.07,0.095-0.069,0.151l0.026,1.553c0.002,0.102,0.086,0.188,0.201,0.205l0.477,0.073   c0.029,0.004,0.156,0.029,0.259,0.071c0.088,0.036,0.19,0.11,0.22,0.139c0.02,0.019,0.074,0.1,0.094,0.165   c0.018,0.053,0.02,0.126,0.019,0.147c0,0.003-0.001,0.017-0.001,0.02l0.007,9.994l-1.354-0.004c-0.107,0-0.203,0.062-0.233,0.154   c0,0-1.097,3.375-1.104,3.396c-0.004,0.013-0.051,0.111-0.061,0.13c-0.054,0.092-0.134,0.193-0.177,0.23   c-0.041,0.035-0.212,0.146-0.306,0.189c0,0-0.059,0.021-0.074,0.026c-0.057,0-0.393,0.002-0.452,0.003   c-0.043-0.013-0.312-0.084-0.497-0.134c0-0.306-0.011-14.069-0.011-14.069c0.002-0.013,0.017-0.107,0.058-0.184   c0.012-0.021,0.075-0.089,0.139-0.142c0.054-0.031,0.269-0.121,0.506-0.196L77.57,4.7c0.096-0.031,0.158-0.11,0.158-0.199V3.053   c0-0.056-0.024-0.11-0.07-0.149c-0.045-0.04-0.106-0.062-0.172-0.062h-0.579h-5.865c-0.129,0-0.235,0.091-0.241,0.204   c0,0-0.06,1.467-0.06,1.47c0,0.09,0.065,0.171,0.165,0.2l0.41,0.121c0.257,0.074,0.502,0.187,0.56,0.225   c0.033,0.039,0.076,0.104,0.093,0.15c0.043,0.131,0.047,0.278,0.047,0.28v12.779c-0.002,0.033-0.015,0.166-0.047,0.261   c-0.006,0.018-0.021,0.038-0.039,0.057c0,0,0.002-0.001,0.01-0.004c0,0-0.008,0.003-0.01,0.005c0,0,0,0-0.002,0.001V18.59   c-0.019,0.008-0.08,0.035-0.08,0.035c-0.097,0.027-0.225,0.043-0.271,0.045l-0.538,0.034c-0.125,0.009-0.223,0.101-0.223,0.211   l-0.002,0.472v1.031c0,0.093,0.068,0.176,0.172,0.202l0.412,0.108c0.219,0.059,2.109,0.561,3.412,0.944   c1.313,0.39,3.982,1.277,4.282,1.378c0.003,0,0.267,0.09,0.462,0.154c0.018,0.012,0.033,0.021,0.053,0.029l2.062,0.801   c-0.003-0.001,2.911,1.186,2.911,1.186c0.075,0.029,0.163,0.024,0.231-0.015c0.068-0.038,0.111-0.104,0.111-0.179l0.003-0.795   v-0.985c0-0.085-0.059-0.162-0.149-0.195l-0.357-0.13l-0.318-0.145c-0.11-0.062-0.197-0.129-0.215-0.146   c-0.044-0.052-0.133-0.173-0.164-0.254c-0.045-0.12-0.05-0.247-0.05-0.249c0,0,0.009-7.54,0.013-10.302   c0.539,2.176,2.808,11.276,2.808,11.276s0.04,0.16,0.103,0.224c0.061,0.062,0.225,0.053,0.225,0.053h0.591   c0,0,0.1-0.012,0.174-0.071c0.074-0.061,0.123-0.195,0.123-0.195s2.207-9.229,2.715-11.354c-0.002,2.967-0.011,14.254-0.011,14.254   c-0.008,0.2-0.048,0.408-0.072,0.471c-0.046,0.054-0.137,0.154-0.191,0.185c-0.074,0.038-0.215,0.069-0.269,0.076   c-0.001,0-0.493,0.067-0.493,0.067c-0.117,0.015-0.203,0.103-0.205,0.205l-0.002,0.438v1.153c0,0.117,0.107,0.213,0.24,0.213h6.907   c0.063,0,0.127-0.023,0.171-0.063c0.046-0.038,0.07-0.093,0.07-0.147C96.566,28.607,96.553,26.979,96.553,26.979 M89.418,28.609   v-1.153l0.003-0.437l0.492-0.066c0.055-0.008,0.235-0.041,0.356-0.104c0.096-0.05,0.194-0.162,0.262-0.236   c0,0,0.012-0.014,0.023-0.027c0.043-0.083,0.09-0.357,0.098-0.572c0,0,0.012-15.475,0.012-16.162c-0.018,0-0.018,0-0.034,0   c-0.103,0.425-3.137,13.13-3.137,13.13s-0.031,0.093-0.063,0.121c-0.031,0.03-0.104,0.03-0.104,0.03l-0.456-0.006   c0,0-0.067,0.007-0.111-0.03s-0.061-0.117-0.061-0.117s-3.141-12.667-3.252-13.116C83.441,12,83.43,22.136,83.43,22.136   c0,0.003,0.006,0.157,0.064,0.31c0.042,0.111,0.146,0.255,0.207,0.322c0.025,0.028,0.136,0.116,0.273,0.19   c0.17,0.094,0.351,0.159,0.353,0.16l0.358,0.13v0.984l-0.004,0.797l-2.914-1.188l-1.711-0.665l-0.593-0.229l-0.28-0.095   c-0.027-0.01-2.914-0.973-4.295-1.381c-1.384-0.41-3.399-0.943-3.421-0.947l-0.413-0.108v-1.03l0.002-0.472l0.539-0.034   c0.047-0.003,0.198-0.02,0.325-0.056c0.085-0.025,0.158-0.066,0.179-0.083c0.026-0.027,0.076-0.08,0.101-0.15   c0.039-0.115,0.054-0.267,0.057-0.32V5.489c0-0.002-0.002-0.175-0.058-0.336c-0.026-0.084-0.096-0.184-0.146-0.237   c-0.074-0.067-0.395-0.202-0.658-0.28l-0.412-0.121l0.06-1.462h5.865h0.579v1.448l-0.381,0.122   c-0.231,0.074-0.504,0.183-0.576,0.23c-0.075,0.062-0.174,0.163-0.203,0.22c-0.059,0.106-0.076,0.229-0.079,0.271   c0,0.042,0.011,13.859,0.011,14.225c0.229,0.062,0.527,0.152,0.575,0.162c0.047,0.013,0.146,0.03,0.147,0.03   c0.105,0.015,0.43,0.007,0.504-0.006c0.016-0.003,0.062-0.012,0.148-0.051c0.113-0.052,0.305-0.177,0.365-0.229   c0.066-0.058,0.163-0.183,0.225-0.289c0,0,0.069-0.149,0.07-0.151l1.107-3.407l1.355,0.004l0.243-0.002L81,15.421l-0.007-9.977   V5.428l0.001-0.011c0.001-0.031,0-0.129-0.025-0.212c-0.029-0.098-0.105-0.211-0.148-0.251c-0.047-0.046-0.174-0.14-0.297-0.19   c-0.125-0.051-0.272-0.08-0.318-0.087l-0.477-0.073L79.7,3.051h5.479c0,0,2.256,9.388,2.362,9.835   c0.142-0.602,2.331-9.841,2.331-9.841h5.829h0.579v1.12l-0.002,0.409l-0.455,0.088c-0.002,0-0.186,0.035-0.357,0.103   c-0.121,0.048-0.23,0.12-0.27,0.154c-0.059,0.049-0.137,0.144-0.168,0.217c-0.039,0.094-0.053,0.202-0.055,0.239   c0,0.345,0.012,20.928,0.012,20.928c0,0.002,0.005,0.104,0.06,0.213c0.031,0.06,0.14,0.176,0.211,0.239   c0.031,0.022,0.14,0.082,0.257,0.118c0.111,0.035,0.242,0.052,0.283,0.057l0.512,0.051l0.017,1.629H89.418L89.418,28.609z"></path>
                                <path fill="#FFFFFF" d="M22.666,2.856l-5.018-0.017C17.583,2.838,17.522,2.86,17.477,2.9c-0.046,0.041-0.071,0.095-0.071,0.15   v1.571c0,0.113,0.101,0.206,0.229,0.212l0.562,0.026c0.038,0.003,0.158,0.023,0.22,0.087c0.179,0.183,0.211,0.439,0.214,0.457   c0,0.025,0.048,14.238,0.048,14.238l-0.001,0.299c-0.006,0.582-0.171,0.959-0.587,1.343c-0.394,0.362-0.829,0.53-1.333,0.514   c-0.259-0.008-0.81-0.114-1.222-0.467c-0.24-0.204-0.479-0.693-0.482-0.987c-0.003-0.347-0.078-14.609-0.079-14.753   c-0.004-0.164,0.041-0.459,0.15-0.586c0.081-0.095,0.294-0.151,0.39-0.161l0.518-0.049c0.123-0.011,0.215-0.101,0.216-0.209   l0.006-1.537c0-0.056-0.025-0.11-0.07-0.15s-0.107-0.062-0.171-0.062H9.425c-0.064,0-0.126,0.022-0.171,0.062   c-0.046,0.04-0.071,0.094-0.071,0.15l0.003,1.529c0,0.113,0.103,0.206,0.232,0.21c0.003,0,0.28,0.01,0.479,0.044   c0.067,0.01,0.209,0.035,0.42,0.207c0.099,0.081,0.15,0.267,0.15,0.409l0.069,15.025h-0.193c-0.121,0-0.224,0.079-0.24,0.186   l-0.396,2.74c-0.051,0.314-0.196,1.189-0.243,1.399c-0.042,0.188-0.148,0.402-0.182,0.474l-0.017,0.032   c-0.081,0.171-0.236,0.337-0.461,0.496c-0.467,0.331-0.976,0.359-0.981,0.36c0-0.001-0.783-0.01-1.188-0.012   c-0.001-0.396-0.014-7.569-0.014-7.569S6.56,5.774,6.558,5.277c0.01-0.044,0.051-0.175,0.185-0.287   c0.075-0.062,0.293-0.128,0.411-0.147l0.478-0.074C7.747,4.75,7.831,4.664,7.831,4.562l0.003-0.426V3.061   c0-0.117-0.108-0.211-0.242-0.211h-0.58h-6.27c-0.064,0-0.126,0.022-0.172,0.062C0.525,2.951,0.5,3.004,0.5,3.061l0.006,1.445   c0,0.095,0.073,0.178,0.178,0.203l0.507,0.122c0.155,0.036,0.313,0.072,0.426,0.184C1.75,5.147,1.766,5.326,1.766,5.328l0,0   c0,0.098,0.06,14.852,0.06,14.852l0.007,2.213l-0.017,3.612c0,0.002,0.001,0.044,0.001,0.044c0,0.174-0.046,0.346-0.077,0.385   c-0.186,0.236-0.414,0.272-0.423,0.274c0.001,0-0.495,0.062-0.495,0.062c-0.116,0.016-0.203,0.101-0.208,0.203l-0.017,0.438   c0,0.007-0.006,1.196-0.006,1.196c0,0.057,0.025,0.11,0.071,0.15c0.045,0.04,0.107,0.062,0.171,0.062l11.131-0.026   c0.125,0,0.229-0.084,0.241-0.192l0.435-4.369c0.012,0.009,0.026,0.018,0.039,0.024l0.039,0.024   c0.283,0.174,0.604,0.371,1.23,0.554c0.468,0.138,1.039,0.214,1.65,0.226c0.316,0.004,0.873-0.035,1.73-0.252   c0.483-0.121,0.954-0.336,1.351-0.529c1.107-0.541,1.677-1.309,2.135-1.924l0.037-0.049c0.309-0.416,0.544-1.113,0.662-1.627   c0.133-0.587,0.156-1.103,0.157-1.123c0-0.004,0-0.022,0-0.022c0-0.019-0.037-13.878-0.038-14.178   c0.012-0.113,0.077-0.274,0.123-0.305c0.231-0.154,0.536-0.227,0.539-0.228c-0.001,0.001,0.43-0.1,0.43-0.1   c0.106-0.024,0.18-0.108,0.18-0.204l0.002-1.45C22.907,2.952,22.799,2.857,22.666,2.856 M22.663,4.519L22.232,4.62   c-0.004,0.001-0.349,0.082-0.622,0.264c-0.141,0.094-0.208,0.349-0.219,0.459c0,0.054,0.038,14.188,0.038,14.188v0.021   c-0.001,0.021-0.023,0.517-0.153,1.087c-0.107,0.473-0.335,1.162-0.626,1.553l-0.037,0.051c-0.444,0.597-0.996,1.339-2.051,1.854   c-0.385,0.188-0.84,0.396-1.3,0.512c-0.829,0.209-1.359,0.248-1.659,0.242c-0.587-0.01-1.133-0.084-1.578-0.214   c-0.591-0.172-0.884-0.352-1.167-0.524l-0.04-0.024c-0.043-0.026-0.095-0.062-0.153-0.099l0.035-0.354   c0.125,0.091,0.233,0.161,0.312,0.209l0.04,0.024c0.275,0.169,0.536,0.33,1.081,0.488c0.413,0.119,0.923,0.188,1.477,0.197   c0.276,0.004,0.771-0.031,1.559-0.23c0.427-0.108,0.861-0.307,1.229-0.486c0.982-0.479,1.509-1.188,1.933-1.757l0.037-0.05   c0.248-0.332,0.469-0.967,0.579-1.448c0.124-0.548,0.145-1.021,0.146-1.04c0,0-0.038-14.223-0.038-14.224   c0,0.006,0.038-0.461,0.352-0.669c0.33-0.219,0.736-0.313,0.741-0.314c0.106-0.025,0.181-0.109,0.181-0.205V3.574   c0-0.117-0.108-0.211-0.241-0.212l-3.857-0.014c-0.064,0-0.126,0.022-0.171,0.062c-0.046,0.04-0.071,0.094-0.071,0.15v0.58   c0,0.115,0.104,0.209,0.236,0.212c0.004,0,0.39,0.012,0.635,0.265c0.317,0.325,0.353,0.756,0.353,0.76   c0,0.127,0.055,13.872,0.047,14.566c-0.008,0.707-0.232,1.214-0.748,1.688c-0.456,0.42-1.031,0.622-1.758,0.618   c-0.526-0.002-1.167-0.239-1.634-0.604c-0.449-0.351-0.644-1.072-0.646-1.301l-0.08-14.754c0-0.012-0.015-0.567,0.268-0.896   c0.269-0.311,0.787-0.358,0.792-0.358c0.125-0.011,0.22-0.102,0.22-0.211V3.554c0-0.117-0.108-0.212-0.242-0.212h-5.426   c-0.133,0-0.242,0.095-0.242,0.212v0.545c0,0.109,0.096,0.201,0.22,0.21C9.988,4.31,10.39,4.346,10.73,4.621   c0.376,0.306,0.315,0.921,0.314,0.927c0,0.007-0.001,0.014-0.001,0.021l0.078,14.738c0,0.008-0.003,0.068-0.004,0.164v0.211   l0.246,0.002l1.388,0.002l-0.25,2.502l-0.027,0.271l-0.036,0.366l-0.026,0.257l-0.448,4.5L0.833,28.609l0.006-1.19l0.018-0.438   l0.497-0.063c0.014-0.002,0.336-0.044,0.586-0.362c0.081-0.104,0.119-0.347,0.119-0.505c0-0.01,0-0.021,0-0.03v-0.013l0.017-3.614   L2.069,20.18c0,0-0.06-14.802-0.06-14.863l0,0c0-0.003-0.016-0.249-0.208-0.44c-0.162-0.161-0.373-0.21-0.543-0.25L0.749,4.505   L0.742,3.061h6.27h0.58v1.074L7.589,4.56L7.111,4.635C6.994,4.653,6.709,4.727,6.577,4.837C6.375,5.004,6.325,5.211,6.316,5.254   c0,0.085,0.063,13.324,0.063,13.324s0.013,7.062,0.014,7.777c0.494,0.004,1.414,0.014,1.444,0.014   c0.038-0.002,0.597-0.037,1.12-0.407c0.256-0.181,0.436-0.375,0.533-0.578c0,0,0.008-0.018,0.015-0.03   c0.038-0.076,0.151-0.305,0.198-0.516c0.049-0.219,0.195-1.102,0.246-1.416l0.396-2.738h0.196h0.234l0.005-0.211   c-0.003-0.576-0.07-14.998-0.07-15.027c0-0.179-0.063-0.429-0.228-0.564c-0.249-0.203-0.432-0.242-0.54-0.26   C9.723,4.585,9.428,4.575,9.428,4.575l-0.003-1.53h6.587l-0.006,1.538l-0.518,0.049c-0.105,0.01-0.411,0.072-0.557,0.243   c-0.172,0.2-0.202,0.584-0.199,0.714c0,0,0.076,14.402,0.08,14.754c0.004,0.353,0.272,0.896,0.555,1.138   c0.455,0.388,1.051,0.517,1.382,0.526c0.637,0.021,1.123-0.218,1.516-0.58c0.458-0.421,0.647-0.852,0.654-1.485   c0-0.047,0-0.149,0-0.301c0-2.117-0.046-13.748-0.048-14.251c-0.002-0.024-0.04-0.342-0.272-0.58   c-0.144-0.148-0.389-0.162-0.392-0.162l-0.561-0.026v-1.57l5.018,0.018L22.663,4.519z M12.93,20.543   c-0.046-0.042-0.11-0.068-0.179-0.068l-1.392-0.002c0-0.103,0.004-0.164,0.004-0.164l-0.078-14.74c0,0,0.081-0.719-0.391-1.102   c-0.411-0.333-0.89-0.368-0.89-0.368V3.554h5.426v0.573c0,0-0.624,0.048-0.963,0.443c-0.34,0.394-0.316,1.022-0.316,1.022   s0.077,14.37,0.079,14.756c0.002,0.25,0.201,1.049,0.727,1.457c0.555,0.435,1.257,0.655,1.793,0.658   c0.632,0.002,1.334-0.132,1.935-0.686c0.6-0.553,0.805-1.127,0.813-1.832c0.008-0.704-0.048-14.583-0.048-14.583   s-0.033-0.497-0.411-0.884c-0.324-0.332-0.813-0.339-0.813-0.339V3.56l3.857,0.014v0.554c0,0-0.45,0.101-0.826,0.351   c-0.41,0.272-0.448,0.838-0.448,0.838l0.038,14.215c0,0-0.02,0.469-0.141,1.006c-0.118,0.515-0.333,1.091-0.544,1.376   c-0.433,0.582-0.927,1.27-1.884,1.736c-0.335,0.164-0.765,0.361-1.179,0.467c-0.767,0.193-1.242,0.229-1.486,0.224   c-0.507-0.009-0.997-0.067-1.406-0.188c-0.536-0.155-0.769-0.309-1.058-0.484c-0.098-0.061-0.25-0.159-0.424-0.294l0.266-2.669   C12.998,20.646,12.975,20.588,12.93,20.543"></path>
                                <path fill="#FFFFFF" d="M1.882,6.008l-1.25-1.084c0,0-0.066-0.047-0.095-0.136c-0.034-0.1-0.034-0.259-0.029-0.336l0.167,0.169   l0.888,0.211l0.285,0.279L1.882,6.008z"></path>
                                <path fill="#FFFFFF" d="M7.43,2.914c0,0,0.075-0.063,0.184-0.06c0.109,0.004,0.213,0.052,0.322,0.135   c0.109,0.083,1.159,0.99,1.159,0.99l0.147,0.004l0.119,0.723L9.96,4.744l0.504,0.241l0.138,0.911l-0.009,1.8   c0,0-0.248-0.157-0.552-0.054C9.794,7.726,9.604,7.974,9.604,8.148v16.238l-0.161,0.894l-0.494,0.566l-0.827,0.387L7.77,26.27   l-1.264-0.025l-0.009-2.307L6.425,5.214l0.223-0.3L7.28,4.731l0.418-0.096V2.978L7.43,2.914z"></path>
                                <path fill="#FFFFFF" d="M32.485,2.986c0,0,0.113-0.134,0.212-0.132c0.156,0.004,0.204,0.094,0.423,0.28   c0.22,0.185,1.204,1.031,1.204,1.031h0.169l0.031,0.403l0.168,0.111l0.893,0.271l0.141,0.358l-1.155,6.466   c0,0-1.424-0.006-1.471-0.006s-0.114-0.024-0.161-0.064c-0.047-0.042-2.909-2.516-2.909-2.516l0.014,3.614l-0.034,4.473l-0.356,0.7   L28.6,18.327l-1.049-0.417l-0.255-0.728l0.02-11.267l0.45-0.688l0.799-0.252l0.913,0.364l0.504,1.011l0.014,2.556l0.107,0.101   l2.66-0.03l0.041-5.965L32.485,2.986z"></path>
                                <path fill="#FFFFFF" d="M37.896,7.163c0.005-0.027,0.022-0.04,0.045-0.04s0.042,0.018,0.051,0.04   c0.007,0.022,0.849,4.333,0.863,4.415c0.018,0.088-0.033,0.203-0.168,0.205c-0.138,0.002-1.268-0.002-1.385-0.002   c-0.118,0-0.208-0.087-0.189-0.207C37.142,11.387,37.891,7.189,37.896,7.163"></path>
                                <path fill="#FFFFFF" d="M42.769,2.962c0,0,0.069-0.129,0.226-0.125c0.157,0.003,0.292,0.15,0.425,0.265   c0.134,0.115,1.309,1.14,1.309,1.14h0.15l-0.192,0.615l-0.081,0.765l0.013,2.892l0.295,1.128l0.604,0.706l1.813,1.128l1.814,1.023   l0.256,0.294l0.014,2.045l-0.43,0.599l-0.726,0.188l-0.833-0.33l-0.336-0.682l-0.026-2.245l-0.229-0.13l-0.063-0.031   c0,0-1.204-1.406-1.25-1.464c-0.045-0.057-0.141-0.048-0.121,0.044c0.02,0.093,0.332,1.53,0.332,1.53l-1.063-0.031l-0.065,0.084   l0.01,2.34L44.6,16.429l-0.489-0.154l-0.479-0.423l-0.287-1.667l-0.474-2.75l-0.549-2.913l-0.61-3.443l0.141-0.211l0.414-0.115   l0.765,0.053l0.091-0.15l-0.03-1.702L42.769,2.962z"></path>
                                <path fill="#FFFFFF" d="M53.369,2.843c0.184-0.003,0.232,0.087,0.301,0.154c0.018,0.018,0.042,0.038,0.042,0.038h0.099l0.032,0.075   l0.022,1.459l0.142,0.105l1.009,0.3l0.12,0.15l0.017,5.622l-1.344-0.011c0,0-2.578-2.247-2.647-2.3   c-0.07-0.053-0.162-0.119-0.167,0.031c-0.004,0.15,0,0.992,0,0.992l-2.008-1.156l-0.403-0.388V5.726l0.376-0.399l0.51-0.152   l0.671,0.094l0.619,0.576l0.202,0.858l-0.014,1.27l0.066,0.082l2.352,0.035l0.175-0.07l-0.067-5.007l-0.229-0.027L53.369,2.843z"></path>
                                <path fill="#FFFFFF" d="M80.834,17.922c0.02-0.167,0.143-0.404,0.17-0.018c0.029,0.39,0.037,2.668,0.029,2.832   c-0.012,0.177-0.09,0.336-0.229,0.466c-0.166,0.153-0.394,0.174-0.445,0.174c-0.094,0-0.207-0.06-0.104-0.571   C80.359,20.291,80.834,17.922,80.834,17.922"></path>
                                <path fill="#FFFFFF" d="M77.175,2.984c0,0,0.156-0.145,0.292-0.144c0.191,0.003,0.293,0.141,0.451,0.285   c0.159,0.143,1.459,1.245,1.459,1.245h0.189l0.017,0.23l0.101,0.128l0.907,0.207l0.287,0.291l-0.01,2.375c0,0-0.867-0.003-1.06,0   c-0.267,0.005-0.533,0.27-0.539,0.513c-0.004,0.242,0.016,7.444,0.016,7.444l-1.047,3.283l-0.395,0.618l-0.543,0.193l-0.665-0.098   l-0.263-0.113l0.011-14.256l0.281-0.291l0.946-0.334l-0.02-1.579L77.175,2.984z"></path>
                                <path fill="#FFFFFF" d="M15.874,2.962c0,0,0-0.128,0.139-0.127c0.151,0,0.264,0.134,0.402,0.255l0.854,0.732h0.194l0.051,0.835   l0.181,0.08l0.696,0.07l0.352,0.432v2.468c0,0-0.273-0.099-0.476-0.017c-0.227,0.09-0.386,0.279-0.386,0.493v13.356l-0.62,0.326   l-0.987,0.009l-0.746-0.335l-0.574-0.864l-0.09-15.551l0.333-0.352l0.917-0.089V3.008L15.874,2.962z"></path>
                                <path fill="#FFFFFF" d="M84.882,2.977c0,0,0.136-0.137,0.294-0.137c0.16,0,0.252,0.129,0.426,0.286   c0.172,0.156,3.242,2.818,3.242,2.818h0.208l-0.778,3.344l-0.686,2.893l-0.074,0.005l-0.832-3.444l-0.894-3.615l-0.537-2.146   L84.882,2.977z"></path>
                                <path fill="#FFFFFF" d="M87.555,27.952c-0.072-0.038-7.123-3.771-16.035-6.019c-7.194-1.812-14.352-2.731-21.269-2.731   c-5.004,0-11.267,0.272-19.779,2.297c-9.298,2.213-16.969,6.185-17.041,6.222c-0.053,0.027-0.071,0.088-0.04,0.135   c0.031,0.047,0.101,0.062,0.154,0.035c0.072-0.037,7.718-3.996,16.985-6.199c8.486-2.021,14.731-2.291,19.72-2.291   c6.896,0,14.031,0.916,21.207,2.726c8.881,2.238,15.909,5.957,15.979,5.996c0.053,0.028,0.123,0.014,0.154-0.034   C87.624,28.041,87.605,27.98,87.555,27.952 M98.449,7.659c0.287-0.126,0.764-0.13,0.854-0.133c0.176-0.006,0.194-0.153,0.194-0.153   s0.007-1.458,0-1.622c-0.007-0.165-0.046-0.188-0.101-0.235c-0.055-0.046-2.641-2.351-2.77-2.476c-0.13-0.128-0.167-0.2-0.38-0.204   c-0.136-0.003-0.224,0.111-0.224,0.111l0.369,0.064l-0.011,1.596l-0.978,0.238l-0.252,0.256l-0.061,21.184l0.111,0.287l0.479,0.176   l0.74,0.119l0.027,1.729l-0.057,0.072l-6.975,0.014l-0.104-0.053l-0.086-0.275l-0.222-0.004l-0.944-0.844v-1.408   c0,0,0-0.189-0.029-0.266c-0.031-0.077-0.127-0.145-0.127-0.145l-0.916-0.83c0,0-0.206-0.2-0.247-0.27   c-0.041-0.068-0.036-0.207-0.036-0.207s0.011-0.697,0.011-0.794s0.101-0.079,0.142-0.054c0.039,0.025,2.236,1.869,2.236,1.869   l1.432,0.027l0.037-13.848l-0.225-0.03l-2.738,11.495l-0.158,0.186l-0.711-0.016L86.59,23.05l-2.824-11.5l-0.203,0.043   l-0.024,10.306l0.11,0.636l0.453,0.334l0.695,0.226l0.005,1.922l-0.055,0.11c0,0-4.299-1.751-6.813-2.597   c-2.517-0.844-7.004-2.055-7.004-2.055l0.004-1.675l0.947-0.062l0.246-0.207l0.016-13.298l-0.227-0.291l-1.078-0.396l0.02-1.365   l-0.201,0.002c0,0-0.055-0.073-0.141-0.159c-0.084-0.084-0.141-0.179-0.301-0.185c-0.08-0.004-0.15,0.081-0.15,0.081l0.244,0.021   l-0.041,1.578l-0.604,0.282l-0.242,0.38l-0.05,12.439l0.231,0.405l0.685,0.316l0.373,0.106l0.051,1.823l-0.181,0.07l-2.288-0.476   l-4.242-0.847l-0.011-0.203l-2.578-2.255v-2.583c0-0.132,0.102-0.158,0.191-0.07c0.119,0.116,1.551,1.323,1.551,1.323l1.674-0.009   l0.393,0.131l-0.01-9.83L64.958,4.81l-0.856-0.406l0.012,3.166l-2.67,0.018V6.044l-0.383-0.565l-0.516-0.123l-1.409-0.053V9.35   h1.058l0.312-0.397l0.102-0.563l0.109-0.098h2.188l0.131,0.072l-0.029,4.284l-0.092,0.106l-2.005,0.043l-0.222-0.071l-0.162-0.422   l-0.24-0.556l-0.264-0.097h-0.855l0.01,4.628l0.424,0.3l0.635,0.079l0.213,0.071l0.05,1.648l-0.201,0.132l-6.297-0.547   l-0.052-0.104l0.042-1.524l0.02-0.089l0.755-0.105l0.303-0.335l0.121-0.317l-0.067-2.99c0,0-2.274-1.989-2.388-2.098   c-0.113-0.11-0.252-0.069-0.252-0.069l0.697,0.809l0.375,1.019l0.021,2.906l-0.375,1.213L52.4,17.173l-1.305,0.716l-1.279,0.192   l-0.985-0.07l-1.687-0.469l0.054,0.388l-0.147,0.082l-2.337,0.018l-0.141,0.019l-5.665,0.593l-0.107-0.043l-0.027-1.651   l0.409-0.117l0.408-0.229l0.007-0.24l-0.469-2.514l-2.229-0.012l-0.604,3.193l0.121,0.111l0.824-0.018l0.107,0.076l0.007,1.542   l-0.107,0.117l-1.467,0.28l-2.772,0.486l-0.234-0.006l-0.033-0.265l0.026-1.125l0.127-0.274l0.529-0.445l0.196-0.431l0.235-1.028   l0.346-2.27c0,0-0.905-0.751-1.119-0.95c-0.214-0.199-0.267-0.196-0.337-0.196c-0.071,0-0.064,0.111-0.064,0.111l0.192,0.059v2.319   l-0.069,1.85L32.76,17.83l-0.155,0.463l-0.669,1.036l-0.95,0.815l-2.071,0.832l-1.868,0.056l-1.277-0.231l-1.23-0.56l-0.39-0.404   l-0.661-0.823l-0.279-0.796l-0.1-12.575l0.231-0.765l0.224-0.438L24,3.86c0,0-0.917-0.807-1.018-0.899   c-0.101-0.092-0.192-0.106-0.3-0.106s-0.134,0.081-0.134,0.081l0.229,0.059v1.552l-0.322,0.129l-0.713,0.27L21.515,5.19v14.878   l-0.329,1.221l-0.304,0.73l-0.557,0.775l-0.532,0.6l-0.786,0.6l-0.836,0.466l-1.419,0.376l-1.445,0.135l-1.495-0.223l-0.592-0.262   c0,0,0.276-3.19,0.283-3.311c0.006-0.117-0.037-0.152-0.057-0.174c-0.021-0.021-0.34-0.298-0.401-0.355s-0.168-0.172-0.293-0.172   c-0.124,0-0.123,0.102-0.123,0.102l0.24,0.113l-0.726,7.847l-0.162,0.141L0.843,28.721l-0.128-0.187c0,0-0.118-0.009-0.118,0.083   c0,0.093,0.05,0.154,0.141,0.232c0.091,0.08,2.921,2.539,2.921,2.539s11.208,0,11.248,0c0.06,0,0.093-0.062,0.108-0.158   c0.015-0.097,0.091-0.713,0.101-0.812c0.011-0.097,0.071-0.185,0.172-0.237c0.101-0.054,1.945-0.899,2.065-0.961   c0.122-0.062,0.302-0.045,0.363,0c0.061,0.043,1.37,1.217,1.662,1.455c0.292,0.236,0.645,0.73,1.381,0.723   c0.322-0.004,0.686-0.121,0.876-0.301c0.244-0.229,0.271-0.537,0.271-0.537l16.584-0.009c0,0,0.998,0.952,2.781,0.907   c1.784-0.043,2.68-0.881,2.68-0.881l0.947,0.749l5.43-0.019c0,0,0.082-0.062,0.121-0.176c0.041-0.115,0.07-0.546,0.07-0.546   s0.359,0.36,0.938,0.581c0.385,0.146,0.934,0.182,1.299,0.186c0.438,0.004,0.962-0.056,1.23-0.248   c0.277-0.198,0.33-0.396,0.312-0.555l0.947,0.775c0,0,5.763,0.018,5.915,0.009c0.15-0.009,0.16-0.123,0.16-0.123l0.029-0.661   c0,0,0.406,0.348,1.088,0.592c0.537,0.189,1.314,0.287,1.713,0.291c0.426,0.004,1.183-0.146,1.684-0.354   c0.568-0.236,0.855-0.537,0.855-0.537l16.918-0.019c0,0,0.228,0.336,0.584,0.556c0.22,0.137,0.539,0.198,0.735,0.203   c0.204,0.003,0.441-0.066,0.634-0.203c0.295-0.206,0.424-0.511,0.424-0.511s3.255,0.013,3.617,0   c0.515-0.019,0.756-0.143,0.795-0.484c0.013-0.09,0.174-0.036,0.133-0.07c-0.041-0.035,1.511,1.276,1.511,1.276   s7.134-0.019,7.244-0.019s0.183-0.121,0.183-0.219s-0.011-1.455-0.021-1.666c-0.01-0.213-0.11-0.272-0.18-0.336   c-0.072-0.062-0.557-0.502-0.849-0.768c-0.292-0.264-0.328-0.584-0.328-0.584V8.126C98.098,7.985,98.177,7.779,98.449,7.659    M24.278,21.622c0.137-0.519,0.259-1.146,0.259-1.146l1.764,1.571l-2.389,0.731C23.913,22.779,24.141,22.143,24.278,21.622    M38.52,28.955c-1.083,0-2.044-0.448-2.666-1.145c-1.801-0.002-17.805-0.015-17.805-0.015c-0.183,0-0.341,0.142-0.343,0.306   s0.163,0.312,0.362,0.315c0.104,0,0.192-0.06,0.262-0.118c0.073-0.061,0.31-0.188,0.474-0.062c0.133,0.121,0.08,0.291-0.068,0.433   c-0.112,0.106-0.406,0.256-0.667,0.254c-0.446-0.003-0.936-0.278-0.944-0.821c-0.007-0.453,0.462-0.804,0.802-0.814l18.346,0.018   c0.487,0.637,1.312,1.057,2.248,1.057c1.499,0,2.713-1.067,2.713-2.387c0-1.315-1.214-2.386-2.713-2.386   c-0.911,0-1.715,0.397-2.207,1.004c-0.273,0.001-5.782,0.017-5.793,0.017c-0.275,0.008-0.915-0.211-0.919-0.825   c-0.004-0.519,0.518-0.82,0.912-0.815c0.361,0.006,0.63,0.137,0.757,0.312c0.086,0.119,0.119,0.312-0.013,0.402   c-0.126,0.086-0.32,0.067-0.416-0.045c-0.051-0.061-0.165-0.16-0.305-0.168c-0.176,0.008-0.373,0.102-0.375,0.316   c-0.001,0.199,0.217,0.312,0.353,0.314l5.388-0.02c0.622-0.665,1.564-1.09,2.619-1.09c1.873,0,3.39,1.336,3.39,2.982   C41.91,27.621,40.393,28.955,38.52,28.955 M37.896,25.695c0.106-0.207,0.341-0.353,0.617-0.353c0.374,0,0.678,0.267,0.678,0.597   s-0.304,0.597-0.678,0.597c-0.268,0-0.495-0.136-0.605-0.334l-16.103-0.019c-0.16,0-0.288-0.113-0.288-0.254   s0.129-0.254,0.288-0.254L37.896,25.695z M47.422,28.645c-0.004,0.037-0.039,0.063-0.08,0.063l-4.475-0.005   c-0.043,0-0.079-0.03-0.08-0.068l-0.019-0.469c0-0.025,0.022-0.053,0.048-0.064l0.245-0.117c0.076-0.045,0.168-0.116,0.207-0.16   c0.021-0.025,0.094-0.115,0.13-0.225c0.042-0.121,0.049-0.248,0.049-0.248s-0.022-4.717-0.022-4.799c0,0-0.039-0.332-0.039-0.335   c-0.029-0.136-0.085-0.27-0.114-0.315c-0.017-0.023-0.077-0.108-0.193-0.174l-0.265-0.112c-0.028-0.013-0.052-0.038-0.052-0.065   l0.005-0.499c0-0.036,0.032-0.067,0.074-0.069l2.947-0.211c0.022-0.002,0.043,0.004,0.061,0.019c0.017,0.013,0.026,0.03,0.026,0.05   l0.01,0.545c0,0.03-0.022,0.057-0.055,0.066c-0.167,0.049-0.292,0.109-0.335,0.162c0,0-0.026,0.031-0.027,0.033   c-0.038,0.041-0.089,0.099-0.113,0.16c-0.029,0.078-0.033,0.162-0.033,0.203v0.01c0.001,0.004,0.004,0.006,0.004,0.01   c0,0.003,0,0.006-0.001,0.009c0,0,0,0.002,0,0.003c-0.004,0.039-0.006,0.322-0.006,0.74c0,1.449,0.019,4.51,0.02,4.535l0.003,0.023   c0.011,0.104,0.031,0.275,0.09,0.391c0.065,0.123,0.177,0.179,0.236,0.179c0.078,0,0.31-0.063,0.496-0.251   c0.103-0.104,0.206-0.282,0.309-0.531c0.028-0.068,0.127-0.316,0.194-0.578l0.132-0.632c0.007-0.034,0.042-0.062,0.082-0.062   l0.789,0.018c0.022,0.001,0.043,0.01,0.059,0.023c0.015,0.017,0.021,0.035,0.02,0.055L47.422,28.645z M51.38,28.477   c-0.08,0.064-0.147,0.106-0.299,0.158c0,0-0.33,0.084-0.333,0.086c0,0-0.068,0.014-0.081,0.016c0,0-0.271,0.029-0.282,0.029   c0,0-0.853,0-0.859,0c-0.024-0.002-0.24-0.017-0.449-0.088c-0.233-0.076-0.425-0.215-0.495-0.277   c-0.071-0.063-0.229-0.237-0.306-0.43c-0.091-0.224-0.103-0.457-0.104-0.484V24.09l0.002-0.037c0-0.07-0.018-0.113-0.033-0.13   c-0.03-0.028-0.115-0.036-0.165-0.032H47.19c-0.021,0-0.042-0.009-0.057-0.021c-0.014-0.014-0.023-0.032-0.023-0.051l0.005-0.715   c0-0.039,0.036-0.069,0.081-0.069h0.821c0.057,0.004,0.111-0.005,0.129-0.019c0.016-0.014,0.026-0.051,0.026-0.101v-0.916   c0-0.031,0.025-0.062,0.06-0.067l1.684-0.388c0.024-0.005,0.049,0,0.069,0.015c0.02,0.012,0.031,0.033,0.031,0.055v1.289   c0,0.039,0.011,0.088,0.035,0.105c0.012,0.008,0.07,0.023,0.19,0.016h1.034c0.045,0,0.08,0.037,0.082,0.076v0.032l-0.023,0.333   c-0.025,0.191-0.074,0.328-0.102,0.393c-0.012,0.027-0.041,0.047-0.074,0.047c0,0-0.807,0.002-0.897,0.002   c-0.013,0.003-0.025,0.009-0.039,0.005c0,0-0.009-0.003-0.019-0.007c-0.034-0.002-0.112,0.013-0.137,0.029   c-0.033,0.021-0.034,0.077-0.032,0.099l-0.001,0.079c-0.003,1.832-0.003,2.925,0.001,3.08c0.002,0.109,0.026,0.383,0.197,0.529   c0.16,0.137,0.468,0.146,0.528,0.146c0.095,0,0.249-0.009,0.38-0.033l0.235-0.069c0.024-0.008,0.056-0.006,0.076,0.008   s0.039,0.031,0.039,0.056l0.007,0.487C51.496,28.346,51.477,28.398,51.38,28.477 M57.652,28.646c0,0.039-0.035,0.07-0.08,0.07   h-2.146c-0.062,0-0.192-0.021-0.288-0.096c-0.117-0.094-0.199-0.235-0.217-0.264h-0.074c-0.055,0.037-0.293,0.201-0.486,0.281   c-0.185,0.076-0.455,0.112-0.549,0.123l-0.209,0.002l-0.396,0.002c-0.262-0.007-0.686-0.147-0.986-0.41   c-0.328-0.287-0.349-0.688-0.349-0.689l-0.004-3.271c0-0.006-0.002-0.722,0.528-1.117c0.424-0.316,1.213-0.389,1.34-0.389   c0.105,0,0.402,0.022,0.644,0.094c0.153,0.045,0.285,0.107,0.365,0.146c0,0,0.094,0.036,0.112,0.044   c0.033,0.001,0.07-0.01,0.09-0.032c0.021-0.029,0.033-0.082,0.035-0.117V22.21c-0.002,0.003-0.008,0.001-0.008,0.006   c0,0,0.004-0.009,0.006-0.019c0.002-0.008,0.002-0.018,0.002-0.018c0-0.062-0.025-0.166-0.061-0.232   c-0.064-0.129-0.213-0.258-0.24-0.282c-0.05-0.041-0.177-0.14-0.312-0.187c-0.075-0.024-0.164-0.041-0.26-0.047   c-0.043-0.002-0.074-0.033-0.074-0.07v-0.539c0-0.018,0.008-0.036,0.023-0.049c0.015-0.014,0.035-0.021,0.057-0.021h0.001   c0,0,0.979,0.005,0.981,0.005c0.704,0.015,1.444,0.115,1.654,0.146c0.039,0.007,0.066,0.035,0.066,0.07   c0,0.062,0.007,6.277,0.014,6.471c0,0.004,0.014,0.342,0.227,0.486c0.164,0.111,0.416,0.129,0.517,0.131   c0.043,0.002,0.077,0.032,0.077,0.071V28.646L57.652,28.646z M82.167,28.923c-0.263,0.002-0.556-0.146-0.668-0.254   c-0.147-0.142-0.201-0.312-0.067-0.433c0.164-0.125,0.401,0.003,0.475,0.062c0.068,0.061,0.158,0.118,0.262,0.118   c0.199-0.005,0.366-0.151,0.363-0.315c-0.002-0.164-0.162-0.306-0.344-0.306c0,0-16.004,0.013-17.806,0.015   c-0.62,0.695-1.583,1.145-2.666,1.145c-1.873,0-3.391-1.334-3.391-2.98s1.518-2.982,3.391-2.982c1.056,0,1.997,0.425,2.619,1.09   l5.713,0.02c0.136-0.002,0.354-0.115,0.353-0.314c-0.002-0.217-0.197-0.311-0.375-0.316c-0.14,0.008-0.254,0.107-0.305,0.168   c-0.096,0.112-0.291,0.131-0.416,0.045c-0.132-0.09-0.1-0.283-0.013-0.402c0.127-0.176,0.396-0.307,0.757-0.312   c0.395-0.005,0.915,0.297,0.911,0.815c-0.004,0.614-0.644,0.833-0.919,0.825c-0.012,0-5.846-0.016-6.118-0.017   c-0.491-0.606-1.297-1.004-2.207-1.004c-1.5,0-2.713,1.069-2.713,2.386c0,1.318,1.213,2.387,2.713,2.387   c0.937,0,1.763-0.42,2.248-1.057l18.347-0.018c0.338,0.012,0.81,0.361,0.803,0.814C83.104,28.645,82.613,28.92,82.167,28.923    M78.439,25.677c0.158,0,0.289,0.113,0.289,0.255c0,0.139-0.131,0.254-0.289,0.254l-16.117,0.018   c-0.111,0.197-0.34,0.334-0.606,0.334c-0.375,0-0.679-0.268-0.679-0.596c0-0.33,0.304-0.598,0.679-0.598   c0.274,0,0.511,0.146,0.616,0.352L78.439,25.677z M87.889,28.247c-0.133,0.19-0.416,0.249-0.634,0.133   c-0.069-0.036-7.022-3.726-15.896-5.963c-7.144-1.8-14.245-2.713-21.109-2.713c-4.966,0-11.183,0.271-19.629,2.278   c-9.06,2.156-16.582,6.006-16.9,6.17c0,0-0.211,0.072-0.35,0.043c-0.183-0.028-0.281-0.187-0.281-0.187   c-0.129-0.19-0.056-0.438,0.166-0.554c0.32-0.164,7.942-4.066,17.124-6.25c8.552-2.034,14.844-2.311,19.871-2.311   c6.951,0,14.138,0.924,21.366,2.746c8.986,2.266,16.05,6.014,16.119,6.051C87.952,27.809,88.021,28.059,87.889,28.247    M54.301,23.766c-0.562,0-0.658,0.459-0.658,0.582c0,0.08,0.012,2.602,0.008,2.758c-0.004,0.252,0.259,0.545,0.699,0.545   c0.428,0,0.661-0.344,0.666-0.541c0.004-0.148,0.006-2.738,0-2.808C55.007,24.206,54.915,23.766,54.301,23.766"></path>
                            </g>
                        </svg>
