<svg xmlns="http://www.w3.org/2000/svg" xmlns:xlink="http://www.w3.org/1999/xlink" version="1.1" id="Layer_1" x="0px" y="0px" width="154.188px" height="10.027px" viewBox="0 0 154.188 10.027" enable-background="new 0 0 154.188 10.027" xml:space="preserve">
                    <g>
                        <g id="_x33_Zendx.tif_1_">
                            <g>
                                <path fill="#FFFFFF" d="M126.668,4.624c0,0.266,0,0.531,0,0.797c-0.005,0.014-0.015,0.027-0.017,0.043     c-0.062,0.664-0.235,1.297-0.559,1.881c-0.812,1.475-2.049,2.35-3.713,2.617c-0.111,0.02-0.226,0.033-0.336,0.049     c-0.261,0-0.521,0-0.779,0c-0.018-0.004-0.034-0.014-0.052-0.016c-0.652-0.062-1.271-0.24-1.853-0.545     c-1.968-1.027-3.023-3.223-2.599-5.398c0.407-2.088,2.1-3.691,4.207-3.986c0.104-0.016,0.207-0.031,0.311-0.049     c0.254,0,0.51,0,0.765,0c0.011,0.006,0.021,0.016,0.032,0.016c0.633,0.049,1.236,0.203,1.798,0.494     c1.548,0.801,2.469,2.062,2.745,3.787C126.638,4.417,126.653,4.52,126.668,4.624z M120.948,4.802     c-0.077-0.434-0.464-0.949-1.079-1.092c-0.6-0.141-1.214,0.102-1.553,0.609c-0.322,0.484-0.325,1.162-0.002,1.607     C119.19,5.553,120.067,5.178,120.948,4.802z M121.226,3.016c-0.005,0.014-0.008,0.02-0.008,0.023     c-0.001,0.932-0.002,1.861-0.001,2.795c0.001,0.207,0.062,0.398,0.252,0.506c0.18,0.1,0.376,0.17,0.567,0.256     c0.081-0.197,0.156-0.379,0.234-0.564c-0.143-0.061-0.272-0.119-0.408-0.168c-0.063-0.023-0.082-0.057-0.082-0.123     c0.002-0.875,0.002-1.75,0.002-2.625c0-0.031,0-0.064,0-0.1C121.59,3.016,121.408,3.016,121.226,3.016z M123.25,5.78     c-0.177-0.189-0.291-0.395-0.293-0.648c-0.002-0.258,0.106-0.467,0.293-0.645c-0.138-0.152-0.27-0.303-0.4-0.449     c-0.693,0.59-0.639,1.676,0.014,2.193C122.99,6.083,123.117,5.932,123.25,5.78z M123.338,6.505     c0.864,0.318,1.787-0.295,1.896-1.105c-0.162-0.029-0.324-0.062-0.486-0.094c-0.03-0.006-0.061-0.008-0.096-0.014     c-0.006,0.025-0.013,0.047-0.019,0.066c-0.126,0.436-0.546,0.691-0.989,0.605c-0.117-0.023-0.117-0.023-0.158,0.096     C123.438,6.208,123.388,6.356,123.338,6.505z M125.231,4.837c-0.129-0.852-1.108-1.4-1.905-1.07     c0.065,0.186,0.133,0.371,0.197,0.557c0.454-0.15,0.982,0.072,1.134,0.635C124.848,4.917,125.039,4.878,125.231,4.837z      M119.072,5.854c-0.106,0.172-0.213,0.34-0.317,0.508c0.563,0.371,1.353,0.273,1.807-0.201c-0.146-0.135-0.295-0.27-0.442-0.402     C119.819,6.02,119.438,6.061,119.072,5.854z"></path>
                                <path fill="#FFFFFF" d="M120.18,4.577c-0.502,0.215-0.994,0.424-1.488,0.635c-0.068-0.299,0.139-0.68,0.449-0.842     C119.49,4.188,119.907,4.268,120.18,4.577z"></path>
                            </g>
                        </g>
                        <g>
                            <g id="Layer_1_copy_4_">
                                <path fill="#FFFFFF" d="M10.865,7.608l1.104-1.188v2.414L10.865,7.608z M7.349,6.719v0.549h1.579v0.613H7.349v0.6h1.769     l0.821-0.883L9.153,6.721H7.348L7.349,6.719L7.349,6.719z M26.911,7.171c0.246,0.256,0.359,0.566,0.359,0.986     c0,0.906-0.607,1.447-1.626,1.447h-1.401c-0.206,0-0.382-0.125-0.457-0.303c-0.272,0.193-0.635,0.303-1.081,0.303h-1.401     c-0.08,0-0.149-0.021-0.216-0.055c-0.064,0.033-0.138,0.055-0.216,0.055h-2.401c-0.081,0-0.151-0.021-0.22-0.057     c-0.065,0.035-0.139,0.057-0.22,0.057h-0.723c-0.272,0-0.496-0.223-0.496-0.496V8.671c0.001-0.043,0.001-0.107-0.001-0.162     c-0.033-0.002-0.08-0.004-0.146-0.004h-0.271v0.604c0,0.273-0.223,0.498-0.498,0.498h-0.724c-0.274,0-0.498-0.225-0.498-0.498     V8.343c-0.254,0.152-0.605,0.252-1.092,0.252h-0.4v0.514c0,0.273-0.222,0.498-0.497,0.498h-1.399     c-0.142,0-0.277-0.062-0.371-0.168l-0.521-0.586l-0.55,0.594c-0.094,0.102-0.226,0.16-0.364,0.16h-2.85     c-0.273,0-0.497-0.225-0.497-0.498v-3.01c0-0.275,0.223-0.498,0.497-0.498h2.894c0.142,0,0.275,0.059,0.37,0.166l0.521,0.58     l0.544-0.588c0.096-0.102,0.228-0.156,0.365-0.156h2.298c0.503,0,0.857,0.109,1.11,0.273c0.082-0.162,0.246-0.273,0.438-0.273     h1.662c0.381,0,0.751,0.014,1.1,0.197c0.036,0.021,0.062,0.051,0.097,0.074c0.083-0.16,0.246-0.271,0.438-0.271h2.401     c0.186,0,0.341,0.104,0.427,0.258c0.238-0.16,0.55-0.258,0.947-0.258h1.441c0.217,0,0.395,0.139,0.463,0.33     c0.247-0.199,0.585-0.33,1.034-0.33h1.442c0.275,0,0.497,0.221,0.497,0.496v0.641c0,0.176-0.091,0.33-0.227,0.418     C26.902,7.161,26.906,7.167,26.911,7.171z M14.836,7.091c0-0.834-0.642-0.994-1.212-0.994h-2.298L10.41,7.083L9.525,6.096H6.631     v3.012h2.851l0.921-0.996l0.886,0.996h1.398v-1.01h0.896C14.213,8.1,14.836,7.925,14.836,7.091z M17.562,7.71     c0.188-0.076,0.51-0.32,0.51-0.803c0-0.342-0.144-0.531-0.37-0.668c-0.237-0.125-0.502-0.141-0.865-0.141h-1.662v3.01h0.725V8.01     h0.768c0.264,0,0.423,0.023,0.526,0.133c0.135,0.139,0.116,0.408,0.116,0.59v0.375h0.723V8.512     c-0.003-0.266-0.018-0.402-0.12-0.551C17.851,7.874,17.721,7.768,17.562,7.71z M20.871,6.098H18.47v3.01h2.401V8.485     l-1.686-0.004V7.884h1.644V7.268h-1.644V6.721h1.686V6.098z M23.832,8.157c0-0.309-0.075-0.494-0.216-0.639     c-0.162-0.164-0.431-0.23-0.821-0.242l-0.386-0.012c-0.123,0-0.204-0.008-0.281-0.033c-0.09-0.035-0.157-0.111-0.157-0.227     c0-0.094,0.03-0.166,0.108-0.217c0.072-0.049,0.157-0.055,0.289-0.055h1.319V6.094h-1.442c-0.754,0-1.028,0.457-1.028,0.896     c0,0.951,0.844,0.91,1.516,0.932c0.127,0,0.2,0.02,0.257,0.064c0.05,0.043,0.087,0.111,0.087,0.199     c0,0.082-0.035,0.15-0.084,0.197c-0.061,0.059-0.157,0.074-0.293,0.074h-1.396v0.646h1.401     C23.428,9.108,23.832,8.807,23.832,8.157z M26.774,8.157c0-0.309-0.076-0.494-0.217-0.639c-0.161-0.164-0.431-0.23-0.82-0.242     l-0.388-0.012c-0.123,0-0.203-0.008-0.28-0.033c-0.089-0.035-0.157-0.111-0.157-0.227c0-0.094,0.03-0.166,0.109-0.217     c0.07-0.049,0.156-0.055,0.288-0.055h1.319V6.094h-1.44c-0.756,0-1.029,0.457-1.029,0.896c0,0.951,0.842,0.91,1.515,0.932     c0.127,0,0.201,0.02,0.257,0.064c0.051,0.043,0.087,0.111,0.087,0.199c0,0.082-0.034,0.15-0.084,0.197     c-0.06,0.059-0.157,0.074-0.293,0.074h-1.396v0.646h1.401C26.368,9.108,26.774,8.807,26.774,8.157z M13.624,6.719h-0.938v0.768     h0.929c0.276,0,0.449-0.137,0.449-0.396C14.064,6.825,13.885,6.719,13.624,6.719z M14.047,2.151     c0.093-0.051,0.148-0.156,0.148-0.287c0-0.129-0.059-0.223-0.151-0.266c-0.084-0.049-0.216-0.055-0.34-0.055h-0.886v0.668h0.874     C13.83,2.212,13.948,2.21,14.047,2.151z M17.127,6.774c-0.087-0.051-0.216-0.053-0.343-0.053h-0.886v0.676h0.874     c0.14,0,0.259-0.006,0.355-0.062c0.093-0.057,0.149-0.16,0.149-0.289C17.277,6.917,17.219,6.823,17.127,6.774z M19.784,1.43     L19.29,2.628h0.994L19.784,1.43z M2.218,2.628h0.981L2.706,1.43L2.218,2.628z M6.244,4.425c-0.196,0-0.375-0.115-0.455-0.297     L5.697,3.915v0.012c0,0.273-0.223,0.498-0.497,0.498H3.737c-0.202,0-0.383-0.123-0.46-0.309l-0.15-0.363H2.293L2.14,4.118     C2.065,4.303,1.883,4.425,1.682,4.425h-0.78c-0.167,0-0.323-0.084-0.416-0.225C0.394,4.061,0.378,3.887,0.444,3.731l1.289-3.01     C1.812,0.54,1.99,0.421,2.19,0.421h1.067c0.199,0,0.379,0.117,0.457,0.301L3.985,1.35V0.917c0-0.273,0.222-0.496,0.497-0.496     h1.174c0.192,0,0.37,0.113,0.452,0.289l0.47,1.021l0.427-1.006C7.083,0.54,7.262,0.421,7.461,0.421H8.66     c0.101,0,0.188,0.035,0.269,0.088c0.078-0.053,0.167-0.088,0.269-0.088H11.6c0.094,0,0.176,0.031,0.248,0.076     c0.076-0.045,0.157-0.076,0.25-0.076h1.655c0.428,0,0.783,0.016,1.121,0.209c0.035,0.021,0.058,0.047,0.089,0.07     c0.082-0.164,0.246-0.279,0.442-0.279h0.733c0.249,0,0.445,0.186,0.482,0.422c0.322-0.279,0.759-0.422,1.351-0.422h0.694     c0.112,0,0.216,0.035,0.298,0.1c0.083-0.064,0.188-0.1,0.297-0.1h1.078c0.199,0,0.378,0.117,0.456,0.301l0.266,0.617V0.917     c0-0.273,0.222-0.496,0.496-0.496h1.098c0.173,0,0.334,0.092,0.425,0.24l0.342,0.566V0.917c0-0.273,0.223-0.496,0.498-0.496     h0.736c0.273,0,0.498,0.223,0.498,0.496v3.01c0,0.275-0.224,0.498-0.498,0.498h-1.019c-0.175,0-0.336-0.092-0.426-0.24     l-0.44-0.73v0.475c0,0.273-0.223,0.496-0.497,0.496h-1.465c-0.2,0-0.382-0.119-0.458-0.305l-0.151-0.367h-0.83l-0.146,0.361     c-0.075,0.188-0.257,0.311-0.458,0.311h-0.843c-0.318,0-0.894-0.057-1.302-0.398c-0.046,0.227-0.237,0.398-0.479,0.398h-0.733     c-0.082,0-0.156-0.023-0.226-0.059c-0.067,0.033-0.141,0.059-0.223,0.059h-0.728c-0.272,0-0.495-0.221-0.497-0.49l-0.003-0.383     l0.001-0.064c0-0.041,0.001-0.104-0.002-0.152c-0.033-0.002-0.077-0.004-0.141-0.004h-0.274v0.6c0,0.271-0.223,0.494-0.497,0.494     h-0.721c-0.093,0-0.175-0.031-0.25-0.074c-0.072,0.043-0.154,0.074-0.248,0.074H9.198c-0.102,0-0.189-0.037-0.269-0.088     C8.849,4.387,8.761,4.425,8.66,4.425H7.923c-0.273,0-0.497-0.223-0.497-0.496V3.915L7.33,4.13     c-0.079,0.18-0.257,0.295-0.454,0.295H6.244L6.244,4.425z M16.49,2.444c0,0.547,0.132,0.895,0.386,1.148     c0.25,0.256,0.691,0.332,1.041,0.332h0.843l0.271-0.67h1.495l0.279,0.672h1.464v-2.26l1.364,2.26h1.02v-3.01h-0.736v2.098     l-1.264-2.098h-1.098v2.848l-1.217-2.848h-1.078l-1.017,2.367h-0.322c-0.188,0-0.39-0.037-0.501-0.156     c-0.135-0.15-0.199-0.383-0.199-0.705c0-0.316,0.084-0.557,0.207-0.682c0.144-0.141,0.291-0.18,0.554-0.18h0.682V0.917h-0.695     c-0.497,0-0.86,0.109-1.092,0.352C16.571,1.591,16.49,1.999,16.49,2.444z M17.987,2.059c-0.168,0-0.187,0.018-0.207,0.037     c-0.007,0.01-0.058,0.117-0.058,0.326c0,0.205,0.033,0.307,0.058,0.352c0.024,0.006,0.071,0.014,0.141,0.014l0.312-0.729H17.987     L17.987,2.059z M15.406,3.927h0.733v-3.01h-0.733V3.927z M12.097,3.927h0.721V2.833h0.771c0.259,0,0.419,0.021,0.524,0.127     c0.131,0.146,0.112,0.406,0.112,0.586l0.004,0.381h0.726V3.335c0-0.268-0.017-0.4-0.12-0.551     c-0.062-0.088-0.198-0.193-0.355-0.254c0.187-0.074,0.507-0.322,0.507-0.803c0-0.336-0.137-0.531-0.364-0.666     c-0.232-0.137-0.503-0.145-0.871-0.145h-1.654L12.097,3.927L12.097,3.927z M9.197,3.927h2.402V3.305H9.915V2.702h1.644V2.087     H9.915V1.544h1.684V0.917H9.197V3.927z M6.244,3.927h0.632l1.043-2.355l0.003,2.355H8.66v-3.01H7.461L6.596,2.958l-0.94-2.041     H4.481v2.852L3.256,0.917H2.189L0.9,3.927h0.781l0.28-0.672h1.497l0.276,0.672h1.465V1.567L6.244,3.927z"></path>
                            </g>
                        </g>
                        <g>
                            <g id="Layer_1_copy_3_">
                                <path fill="#FFFFFF" d="M43.246,7.548V2.466c1.021,0.391,1.747,1.381,1.748,2.541C44.992,6.167,44.266,7.153,43.246,7.548z      M42.26,9.704h2.208c2.564,0.014,4.905-2.09,4.905-4.648c0-2.799-2.341-4.732-4.905-4.732H42.26     c-2.595,0-4.731,1.936-4.731,4.732C37.529,7.614,39.666,9.718,42.26,9.704z M42.271,0.712c2.371,0,4.294,1.922,4.294,4.295     c0,2.371-1.922,4.293-4.294,4.295c-2.372-0.002-4.293-1.924-4.294-4.295C37.978,2.634,39.899,0.712,42.271,0.712z M39.551,5.007     c0.002-1.16,0.726-2.148,1.746-2.541v5.08C40.275,7.153,39.552,6.165,39.551,5.007z"></path>
                            </g>
                        </g>
                        <g>
                            <g id="Layer_1_copy_2_">
                                <path fill="#FFFFFF" d="M78.549,2.007h-1.271c-0.395,0-0.688,0.108-0.862,0.502l-2.442,5.533H75.7c0,0,0.281-0.744,0.346-0.908     c0.189,0,1.869,0.003,2.107,0.003c0.05,0.211,0.201,0.905,0.201,0.905h1.526L78.549,2.007z M76.52,5.899     c0.135-0.347,0.656-1.687,0.656-1.687c-0.009,0.016,0.134-0.351,0.219-0.577l0.11,0.52c0,0,0.315,1.442,0.383,1.744H76.52z      M74.087,6.066C74.074,7.321,72.95,8.13,71.221,8.13c-0.738-0.008-1.449-0.153-1.834-0.321l0.231-1.353l0.212,0.097     c0.541,0.226,0.89,0.316,1.55,0.316c0.473,0,0.979-0.186,0.984-0.59c0.003-0.266-0.212-0.452-0.854-0.748     c-0.625-0.29-1.452-0.773-1.442-1.641c0.01-1.176,1.156-1.993,2.783-1.993c0.637,0,1.148,0.132,1.474,0.253l-0.223,1.31     l-0.148-0.07c-0.304-0.123-0.694-0.238-1.232-0.23c-0.645,0-0.942,0.268-0.942,0.521c-0.004,0.282,0.348,0.467,0.924,0.748     C73.655,4.856,74.093,5.38,74.087,6.066z M59.632,2.068l0.021-0.12h2.552c0.344,0.013,0.621,0.123,0.717,0.49l0.555,2.669     C62.932,3.712,61.617,2.551,59.632,2.068z M67.074,2.005l-2.592,6.027l-1.741,0.004l-1.475-5.035     c1.061,0.679,1.962,1.754,2.28,2.502l0.173,0.622l1.611-4.118L67.074,2.005L67.074,2.005z M67.74,2h1.647l-1.03,6.039h-1.646     L67.74,2z"></path>
                            </g>
                        </g>
                        <g>
                            <g id="Layer_1_copy_1_">
                                <path fill="#FFFFFF" d="M105.792,5.992c-0.021,0.01-0.037,0.025-0.05,0.049c-0.012,0.02-0.018,0.043-0.018,0.062     c0,0.023,0.006,0.045,0.018,0.066c0.013,0.02,0.027,0.037,0.05,0.049c0.021,0.012,0.042,0.02,0.063,0.02     c0.023,0,0.045-0.008,0.065-0.02s0.036-0.027,0.049-0.049c0.012-0.021,0.017-0.043,0.017-0.066c0-0.02-0.006-0.043-0.018-0.062     c-0.012-0.021-0.027-0.037-0.049-0.049c-0.021-0.014-0.042-0.02-0.064-0.02C105.835,5.972,105.814,5.978,105.792,5.992z      M105.91,6.043c0.007,0.008,0.009,0.016,0.009,0.023c0,0.014-0.005,0.023-0.015,0.033c-0.008,0.01-0.021,0.014-0.034,0.016     c0.007,0.004,0.012,0.006,0.016,0.01c0.006,0.006,0.014,0.018,0.022,0.033l0.021,0.033h-0.033l-0.016-0.025     c-0.013-0.021-0.021-0.035-0.027-0.041c-0.007-0.004-0.014-0.006-0.022-0.006h-0.017v0.07h-0.026V6.021h0.059     c0.02,0,0.035,0.002,0.043,0.006S105.905,6.037,105.91,6.043z M105.847,6.045c0.014,0,0.021,0.002,0.027,0.002     c0.006,0.004,0.01,0.006,0.012,0.01c0.003,0.004,0.004,0.008,0.004,0.014c0,0.008-0.002,0.014-0.008,0.02     s-0.018,0.008-0.033,0.008h-0.033V6.045H105.847L105.847,6.045z M102.249,5.347c0.088,0.002,0.098,0.01,0.111,0.012     c0.011,0.09-0.055,0.498-0.367,0.498c-0.16,0-0.201-0.123-0.201-0.195C101.792,5.519,101.867,5.347,102.249,5.347z M93.843,5.347     c0.09,0.002,0.099,0.01,0.113,0.012c0.01,0.09-0.056,0.498-0.367,0.498c-0.16,0-0.203-0.123-0.203-0.195     C93.386,5.519,93.464,5.347,93.843,5.347z M101.541,0.142c-1.258,0-2.403,0.477-3.268,1.26c-0.863-0.781-2.009-1.26-3.265-1.26     c-0.011,0-0.021,0-0.031,0c-2.673,0.02-4.839,2.193-4.839,4.871c0,2.688,2.182,4.869,4.87,4.869c1.255,0,2.399-0.477,3.265-1.258     c-0.181-0.162-0.344-0.344-0.498-0.533h1.006c-0.151,0.188-0.315,0.361-0.493,0.523h-0.003l0,0     c-0.004,0.004-0.008,0.006-0.012,0.01c0.864,0.783,2.011,1.26,3.27,1.26c2.688,0,4.869-2.182,4.867-4.871     c0-0.002,0-0.002,0-0.002C106.41,2.322,104.232,0.142,101.541,0.142z M97.832,1.904h0.925c0.137,0.166,0.264,0.34,0.379,0.521     h-1.652C97.591,2.252,97.708,2.074,97.832,1.904z M97.196,2.937h2.221c0.079,0.168,0.148,0.344,0.21,0.521h-2.692     C96.96,3.41,97.054,3.205,97.196,2.937z M92.128,6.254l0.295-1.861l-0.666,1.861H91.4l-0.046-1.861l-0.314,1.861h-0.5     l0.414-2.469h0.757l0.025,1.514l0.513-1.514h0.819l-0.409,2.469H92.128z M93.898,6.252l0.017-0.199     c-0.009,0-0.165,0.238-0.531,0.238c-0.191,0-0.5-0.105-0.5-0.561c0-0.576,0.471-0.768,0.919-0.768     c0.071,0,0.224,0.012,0.224,0.012s0.018-0.035,0.018-0.131c0-0.156-0.143-0.178-0.335-0.178c-0.341,0-0.564,0.09-0.564,0.09     l0.075-0.447c0,0,0.271-0.111,0.628-0.111c0.184,0,0.713,0.02,0.713,0.625L94.355,6.25L93.898,6.252L93.898,6.252z M95.825,5.621     c0,0.688-0.667,0.66-0.783,0.66c-0.437,0-0.568-0.061-0.582-0.064l0.069-0.453c0-0.004,0.219,0.08,0.46,0.08     c0.141,0,0.321-0.016,0.321-0.182c0-0.25-0.648-0.191-0.648-0.783c0-0.525,0.39-0.678,0.771-0.678     c0.297,0,0.479,0.041,0.479,0.041l-0.064,0.457c0,0-0.281-0.023-0.355-0.023c-0.184,0-0.283,0.041-0.283,0.17     C95.208,5.105,95.825,4.976,95.825,5.621z M96.628,5.801c0.047,0,0.098-0.014,0.134-0.014l-0.065,0.438     c-0.051,0.016-0.198,0.068-0.389,0.068c-0.24,0.002-0.413-0.133-0.413-0.439c0-0.205,0.295-1.898,0.307-1.91h0.52l-0.053,0.305     h0.258l-0.065,0.486h-0.273l-0.146,0.898C96.427,5.707,96.448,5.801,96.628,5.801z M97.769,4.189c0.568,0,0.739,0.416,0.739,0.76     c0,0.137-0.069,0.473-0.069,0.473h-1.053c0,0-0.098,0.414,0.459,0.414c0.262,0,0.551-0.127,0.551-0.127l-0.092,0.5     c0,0-0.166,0.086-0.547,0.086c-0.412,0-0.896-0.176-0.896-0.908C96.862,4.752,97.247,4.189,97.769,4.189z M99.142,7.592h-1.728     C97.309,7.424,97.21,7.25,97.126,7.07h2.299C99.341,7.25,99.247,7.424,99.142,7.592z M99.027,6.258h-0.533l0.324-2.01H99.3     l-0.047,0.291c0,0,0.173-0.316,0.403-0.316c0.068,0,0.102,0.006,0.102,0.006c-0.069,0.141-0.13,0.271-0.192,0.602     C99.205,4.703,99.177,5.398,99.027,6.258z M101.054,6.226c0,0-0.279,0.07-0.454,0.07c-0.618,0-0.933-0.426-0.933-1.074     c0-0.975,0.582-1.494,1.18-1.494c0.271,0,0.585,0.127,0.585,0.127l-0.085,0.551c0,0-0.212-0.148-0.476-0.148     c-0.354,0-0.67,0.336-0.67,0.949c0,0.301,0.147,0.582,0.517,0.582c0.174,0,0.428-0.127,0.428-0.127L101.054,6.226z      M102.302,6.252l0.018-0.199c-0.008,0-0.167,0.238-0.531,0.238c-0.191,0-0.501-0.105-0.501-0.561c0-0.576,0.471-0.768,0.92-0.768     c0.069,0,0.223,0.012,0.223,0.012s0.018-0.035,0.018-0.131c0-0.156-0.141-0.178-0.335-0.178c-0.34,0-0.563,0.09-0.563,0.09     l0.075-0.445c0,0,0.272-0.113,0.629-0.113c0.183,0,0.711,0.02,0.711,0.625l-0.203,1.428     C102.759,6.252,102.302,6.252,102.302,6.252z M103.379,6.258h-0.532l0.324-2.01h0.481l-0.047,0.291c0,0,0.174-0.316,0.404-0.316     c0.068,0,0.101,0.006,0.101,0.006c-0.067,0.141-0.13,0.271-0.191,0.602C103.558,4.703,103.53,5.398,103.379,6.258z      M105.992,6.025c0.017,0.025,0.021,0.053,0.021,0.078c0,0.027-0.007,0.055-0.021,0.078c-0.014,0.025-0.032,0.045-0.058,0.061     c-0.024,0.014-0.052,0.021-0.079,0.021c-0.025,0-0.053-0.008-0.077-0.021c-0.023-0.016-0.044-0.033-0.058-0.061     c-0.015-0.023-0.021-0.051-0.021-0.078c0-0.025,0.009-0.053,0.021-0.078c0.014-0.023,0.034-0.045,0.059-0.059     c0.025-0.014,0.052-0.02,0.076-0.02c0.027,0,0.053,0.006,0.078,0.02C105.96,5.982,105.98,6,105.992,6.025z M105.237,4.48     l0.111-0.691l0.521-0.002l-0.396,2.465h-0.505l0.022-0.186c0,0-0.172,0.219-0.483,0.219c-0.431,0-0.643-0.416-0.643-0.844     c0-0.656,0.396-1.23,0.87-1.23C105.042,4.211,105.237,4.48,105.237,4.48z M98.009,5.01h-0.576c0-0.035,0.055-0.355,0.338-0.355     C98.064,4.654,98.009,4.982,98.009,5.01z M104.824,4.711c0.188,0,0.282,0.127,0.282,0.43c0,0.271-0.135,0.641-0.415,0.641     c-0.188,0-0.274-0.158-0.274-0.404C104.417,4.974,104.597,4.711,104.824,4.711z"></path>
                            </g>
                        </g>
                        <g>
                            <path fill="#FFFFFF" d="M142.314,6.677c-0.179,0-0.32,0.109-0.387,0.326c-0.125,0.42-0.123,0.844-0.005,1.264    c0.062,0.221,0.2,0.322,0.386,0.322c0.185,0.002,0.326-0.1,0.386-0.318c0.055-0.205,0.071-0.42,0.106-0.631    c-0.035-0.217-0.053-0.43-0.104-0.635C142.638,6.789,142.489,6.676,142.314,6.677z"></path>
                            <path fill="#FFFFFF" d="M140.075,7.131c0.047-0.111,0.05-0.271,0.009-0.387c-0.056-0.156-0.219-0.154-0.376-0.135    c0,0.225,0,0.43,0,0.641C139.859,7.269,140.016,7.271,140.075,7.131z"></path>
                            <path fill="#FFFFFF" d="M150.511,6.677c-0.183-0.006-0.331,0.105-0.397,0.33c-0.125,0.418-0.125,0.844-0.001,1.264    c0.063,0.221,0.198,0.32,0.386,0.318c0.184,0,0.322-0.1,0.381-0.324c0.055-0.203,0.074-0.418,0.109-0.627    c-0.035-0.211-0.056-0.42-0.105-0.621C150.824,6.793,150.688,6.683,150.511,6.677z"></path>
                            <path fill="#FFFFFF" d="M152.98-0.018h-15.248c-0.444,0-0.806,0.361-0.806,0.807V9.24c0,0.443,0.36,0.805,0.806,0.805h15.248    c0.443,0,0.805-0.361,0.805-0.805V0.787C153.784,0.344,153.424-0.018,152.98-0.018z M151.323,0.529c0.096,0,0.186,0,0.285,0    c0,1.627,0,3.244,0,4.877c-0.095,0-0.184,0-0.285,0C151.323,3.789,151.323,2.168,151.323,0.529z M150.381,0.525    c0.205,0,0.396,0,0.597,0c0,1.615,0,3.223,0,4.842c-0.196,0-0.392,0-0.597,0C150.381,3.754,150.381,2.148,150.381,0.525z     M149.442,0.529c0.086,0,0.177,0,0.279,0c0,1.609,0,3.217,0,4.842c-0.097,0-0.183,0-0.279,0    C149.442,3.758,149.442,2.15,149.442,0.529z M148.504,0.529c0.193,0,0.387,0,0.593,0c0,1.609,0,3.217,0,4.84    c-0.201,0-0.392,0-0.593,0C148.504,3.754,148.504,2.148,148.504,0.529z M147.561,0.525c0.099,0,0.184,0,0.282,0    c0,1.615,0,3.223,0,4.842c-0.092,0-0.182,0-0.282,0C147.561,3.756,147.561,2.148,147.561,0.525z M146.625,0.531    c0.092,0,0.187,0,0.287,0c0,1.611,0,3.219,0,4.84c-0.104,0-0.189,0-0.287,0C146.625,3.756,146.625,2.15,146.625,0.531z     M144.748,0.527c0.091,0,0.182,0,0.281,0c0,1.611,0,3.219,0,4.844c-0.094,0-0.181,0-0.281,0    C144.748,3.756,144.748,2.146,144.748,0.527z M144.115,0.529c0.098,0,0.188,0,0.288,0c0,1.613,0,3.223,0,4.838    c-0.099,0-0.188,0-0.288,0C144.115,3.752,144.115,2.146,144.115,0.529z M142.237,0.529c0.097,0,0.188,0,0.287,0    c0,1.609,0,3.215,0,4.838c-0.099,0-0.188,0-0.287,0C142.237,3.75,142.237,2.144,142.237,0.529z M140.043,0.527    c0.207,0,0.402,0,0.604,0c0,1.617,0,3.225,0,4.842c-0.203,0-0.398,0-0.604,0C140.043,3.756,140.043,2.148,140.043,0.527z     M139.419,0.529c0.087,0,0.177,0,0.28,0c0,1.613,0,3.223,0,4.84c-0.096,0-0.183,0-0.28,0C139.419,3.76,139.419,2.15,139.419,0.529    z M137.819,9.463c-0.09,0-0.181,0-0.281,0c0-2.973,0-5.945,0-8.939c0.095,0,0.181,0,0.281,0    C137.819,3.504,137.819,6.476,137.819,9.463z M138.447,9.47c-0.103,0-0.188,0-0.284,0c0-2.98,0-5.957,0-8.941    c0.09,0,0.181,0,0.284,0C138.447,3.506,138.447,6.478,138.447,9.47z M139.076,5.367c-0.098,0-0.188,0-0.287,0    c0-1.609,0-3.217,0-4.838c0.1,0,0.189,0,0.287,0C139.076,2.144,139.076,3.75,139.076,5.367z M140.899,8.406    c-0.043,0.498-0.283,0.771-0.777,0.822c-0.34,0.037-0.686,0.008-1.037,0.008c0-1.088,0-2.129,0-3.215    c0.33,0,0.656-0.037,0.971,0.008c0.636,0.088,0.91,0.814,0.531,1.346c-0.029,0.039-0.059,0.076-0.096,0.123    C140.847,7.705,140.929,8.035,140.899,8.406z M140.985,0.525c0.206,0,0.396,0,0.596,0c0,1.615,0,3.223,0,4.84    c-0.196,0-0.391,0-0.596,0C140.985,3.754,140.985,2.148,140.985,0.525z M143.275,8.603c-0.166,0.432-0.494,0.658-0.969,0.654    c-0.471-0.002-0.806-0.227-0.959-0.662c-0.107-0.311-0.147-0.645-0.221-0.975c0.076-0.332,0.117-0.662,0.23-0.967    c0.155-0.424,0.481-0.652,0.948-0.654c0.468-0.002,0.788,0.227,0.957,0.645C143.524,7.293,143.526,7.955,143.275,8.603z     M143.776,5.369c-0.204,0-0.398,0-0.603,0c0-1.617,0-3.225,0-4.842c0.199,0,0.396,0,0.603,0    C143.776,2.138,143.776,3.746,143.776,5.369z M145.302,9.199c-0.494,0-0.975,0-1.468,0c0-1.043,0-2.086,0-3.152    c0.2,0,0.395,0,0.612,0c0,0.824,0,1.637,0,2.479c0.301,0,0.567,0,0.854,0C145.302,8.756,145.302,8.972,145.302,9.199z     M145.371,0.529c0.193,0,0.387,0,0.594,0c0,1.609,0,3.217,0,4.84c-0.203,0-0.393,0-0.594,0    C145.371,3.754,145.371,2.148,145.371,0.529z M147.155,9.199c-0.519,0-1.025,0-1.541,0c0-1.045,0-2.086,0-3.139    c0.497,0,0.994,0,1.516,0c0,0.219,0,0.438,0,0.672c-0.303,0-0.586,0-0.882,0c0,0.162,0,0.309,0,0.488    c0.173,0,0.351,0.008,0.528-0.002c0.137-0.008,0.188,0.043,0.184,0.176c-0.006,0.127-0.006,0.254-0.004,0.379    c0.002,0.102-0.045,0.133-0.141,0.129c-0.187-0.006-0.371-0.002-0.572-0.002c0,0.221,0,0.41,0,0.623c0.301,0,0.594,0,0.912,0    C147.155,8.76,147.155,8.974,147.155,9.199z M149.233,6.732c-0.205,0-0.396,0-0.599,0c-0.003,0.076-0.008,0.137-0.008,0.193    c0,0.691-0.007,1.385,0.004,2.074c0.003,0.166-0.049,0.232-0.207,0.227c-0.006,0-0.01,0.002-0.016,0.004    c-0.376,0.045-0.423,0.004-0.423-0.369c0-0.643,0-1.283,0-1.926c0-0.061,0-0.119,0-0.205c-0.172,0-0.329,0.01-0.485-0.004    c-0.047-0.004-0.125-0.061-0.127-0.098c-0.014-0.188-0.007-0.377-0.007-0.572c0.634,0,1.235,0,1.866,0    C149.233,6.277,149.233,6.496,149.233,6.732z M151.444,8.648c-0.189,0.4-0.5,0.611-0.949,0.609s-0.776-0.207-0.943-0.615    c-0.274-0.674-0.272-1.361,0.011-2.033c0.17-0.404,0.497-0.611,0.946-0.607c0.445,0.002,0.744,0.223,0.933,0.613    c0.155,0.322,0.188,0.672,0.196,1.016C151.628,7.988,151.595,8.33,151.444,8.648z M152.664,9.506c-0.197,0-0.391,0-0.596,0    c0-2.992,0-5.977,0-8.98c0.205,0,0.395,0,0.596,0C152.664,3.517,152.664,6.504,152.664,9.506z M153.174,9.51    c-0.094,0-0.18,0-0.28,0c0-2.992,0-5.98,0-8.984c0.045-0.002,0.093-0.008,0.141-0.008c0.043,0,0.086,0.004,0.141,0.008    C153.174,3.519,153.174,6.51,153.174,9.51z"></path>
                            <path fill="#FFFFFF" d="M139.708,7.885c0,0.25,0,0.486,0,0.721c0.233,0.055,0.405,0.008,0.495-0.127    c0.078-0.117,0.086-0.34,0.002-0.449C140.078,7.863,139.898,7.871,139.708,7.885z"></path>
                        </g>
                    </g>
                    </svg>
